<mxfile host="app.diagrams.net" modified="2021-12-10T09:30:45.410Z" agent="5.0 (Macintosh; Intel Mac OS X 10_15_7) AppleWebKit/605.1.15 (KHTML, like Gecko) Version/13.1.3 Safari/605.1.15" etag="YZU-2fwSBOWjjZ1hWHWl" version="15.9.4" type="github">
  <diagram id="Ix1OOtGq-C3u2MJTWwgR" name="Page-1">
    <mxGraphModel dx="946" dy="588" grid="1" gridSize="10" guides="1" tooltips="1" connect="1" arrows="1" fold="1" page="1" pageScale="1" pageWidth="827" pageHeight="1169" math="0" shadow="0">
      <root>
        <mxCell id="0" />
        <mxCell id="1" parent="0" />
        <mxCell id="eemetqSo-ChcL3hAfSQk-2" value="&lt;font face=&quot;Times New Roman&quot;&gt;&quot;Cross&quot; set image&lt;i&gt; I&lt;sub&gt;C&lt;/sub&gt;&lt;/i&gt;&lt;/font&gt;" style="text;html=1;strokeColor=none;fillColor=none;align=center;verticalAlign=middle;whiteSpace=wrap;rounded=0;fontSize=16;" parent="1" vertex="1">
          <mxGeometry x="206" y="440" width="150" height="30" as="geometry" />
        </mxCell>
        <mxCell id="WUI7d0x4xuRXz8EVybFa-2" value="0" style="text;html=1;strokeColor=default;fillColor=none;align=center;verticalAlign=middle;whiteSpace=wrap;rounded=0;sketch=0;fontFamily=Times New Roman;fontSize=16;" vertex="1" parent="1">
          <mxGeometry x="220" y="527" width="20" height="20" as="geometry" />
        </mxCell>
        <mxCell id="WUI7d0x4xuRXz8EVybFa-3" style="edgeStyle=orthogonalEdgeStyle;rounded=0;orthogonalLoop=1;jettySize=auto;html=1;fontFamily=Times New Roman;fontSize=12;" edge="1" parent="1">
          <mxGeometry relative="1" as="geometry">
            <mxPoint x="330" y="597" as="sourcePoint" />
            <mxPoint x="330" y="597" as="targetPoint" />
          </mxGeometry>
        </mxCell>
        <mxCell id="WUI7d0x4xuRXz8EVybFa-4" value="&lt;font style=&quot;font-size: 55px&quot; color=&quot;#cc6600&quot;&gt;·&lt;/font&gt;" style="text;html=1;strokeColor=default;fillColor=none;align=center;verticalAlign=middle;whiteSpace=wrap;rounded=0;sketch=0;fontFamily=Times New Roman;fontSize=16;" vertex="1" parent="1">
          <mxGeometry x="220" y="507" width="20" height="20" as="geometry" />
        </mxCell>
        <mxCell id="WUI7d0x4xuRXz8EVybFa-6" value="0" style="text;html=1;strokeColor=default;fillColor=none;align=center;verticalAlign=middle;whiteSpace=wrap;rounded=0;sketch=0;fontFamily=Times New Roman;fontSize=16;" vertex="1" parent="1">
          <mxGeometry x="240" y="507" width="20" height="20" as="geometry" />
        </mxCell>
        <mxCell id="WUI7d0x4xuRXz8EVybFa-7" value="0" style="text;html=1;strokeColor=default;fillColor=none;align=center;verticalAlign=middle;whiteSpace=wrap;rounded=0;sketch=0;fontFamily=Times New Roman;fontSize=16;" vertex="1" parent="1">
          <mxGeometry x="260" y="527" width="20" height="20" as="geometry" />
        </mxCell>
        <mxCell id="WUI7d0x4xuRXz8EVybFa-8" value="&lt;font style=&quot;font-size: 55px&quot; color=&quot;#cc6600&quot;&gt;·&lt;/font&gt;" style="text;html=1;strokeColor=default;fillColor=none;align=center;verticalAlign=middle;whiteSpace=wrap;rounded=0;sketch=0;fontFamily=Times New Roman;fontSize=16;" vertex="1" parent="1">
          <mxGeometry x="260" y="507" width="20" height="20" as="geometry" />
        </mxCell>
        <mxCell id="WUI7d0x4xuRXz8EVybFa-9" value="&lt;font style=&quot;font-size: 55px&quot; color=&quot;#cc6600&quot;&gt;·&lt;/font&gt;" style="text;html=1;strokeColor=default;fillColor=none;align=center;verticalAlign=middle;whiteSpace=wrap;rounded=0;sketch=0;fontFamily=Times New Roman;fontSize=16;" vertex="1" parent="1">
          <mxGeometry x="240" y="527" width="20" height="20" as="geometry" />
        </mxCell>
        <mxCell id="WUI7d0x4xuRXz8EVybFa-11" value="0" style="text;html=1;strokeColor=default;fillColor=none;align=center;verticalAlign=middle;whiteSpace=wrap;rounded=0;sketch=0;fontFamily=Times New Roman;fontSize=16;" vertex="1" parent="1">
          <mxGeometry x="220" y="567" width="20" height="20" as="geometry" />
        </mxCell>
        <mxCell id="WUI7d0x4xuRXz8EVybFa-12" value="&lt;font style=&quot;font-size: 55px&quot; color=&quot;#cc6600&quot;&gt;·&lt;/font&gt;" style="text;html=1;strokeColor=default;fillColor=none;align=center;verticalAlign=middle;whiteSpace=wrap;rounded=0;sketch=0;fontFamily=Times New Roman;fontSize=16;" vertex="1" parent="1">
          <mxGeometry x="220" y="547" width="20" height="20" as="geometry" />
        </mxCell>
        <mxCell id="WUI7d0x4xuRXz8EVybFa-14" value="0" style="text;html=1;strokeColor=default;fillColor=none;align=center;verticalAlign=middle;whiteSpace=wrap;rounded=0;sketch=0;fontFamily=Times New Roman;fontSize=16;" vertex="1" parent="1">
          <mxGeometry x="240" y="547" width="20" height="20" as="geometry" />
        </mxCell>
        <mxCell id="WUI7d0x4xuRXz8EVybFa-15" value="0" style="text;html=1;strokeColor=default;fillColor=none;align=center;verticalAlign=middle;whiteSpace=wrap;rounded=0;sketch=0;fontFamily=Times New Roman;fontSize=16;" vertex="1" parent="1">
          <mxGeometry x="260" y="567" width="20" height="20" as="geometry" />
        </mxCell>
        <mxCell id="WUI7d0x4xuRXz8EVybFa-16" value="&lt;font style=&quot;font-size: 55px&quot; color=&quot;#cc6600&quot;&gt;·&lt;/font&gt;" style="text;html=1;strokeColor=default;fillColor=none;align=center;verticalAlign=middle;whiteSpace=wrap;rounded=0;sketch=0;fontFamily=Times New Roman;fontSize=16;" vertex="1" parent="1">
          <mxGeometry x="260" y="547" width="20" height="20" as="geometry" />
        </mxCell>
        <mxCell id="WUI7d0x4xuRXz8EVybFa-17" value="&lt;font style=&quot;font-size: 55px&quot; color=&quot;#cc6600&quot;&gt;·&lt;/font&gt;" style="text;html=1;strokeColor=default;fillColor=none;align=center;verticalAlign=middle;whiteSpace=wrap;rounded=0;sketch=0;fontFamily=Times New Roman;fontSize=16;" vertex="1" parent="1">
          <mxGeometry x="240" y="567" width="20" height="20" as="geometry" />
        </mxCell>
        <mxCell id="WUI7d0x4xuRXz8EVybFa-18" value="0" style="text;html=1;strokeColor=default;fillColor=none;align=center;verticalAlign=middle;whiteSpace=wrap;rounded=0;sketch=0;fontFamily=Times New Roman;fontSize=16;" vertex="1" parent="1">
          <mxGeometry x="280" y="507" width="20" height="20" as="geometry" />
        </mxCell>
        <mxCell id="WUI7d0x4xuRXz8EVybFa-19" value="0" style="text;html=1;strokeColor=default;fillColor=none;align=center;verticalAlign=middle;whiteSpace=wrap;rounded=0;sketch=0;fontFamily=Times New Roman;fontSize=16;" vertex="1" parent="1">
          <mxGeometry x="300" y="527" width="20" height="20" as="geometry" />
        </mxCell>
        <mxCell id="WUI7d0x4xuRXz8EVybFa-20" value="&lt;font style=&quot;font-size: 55px&quot; color=&quot;#cc6600&quot;&gt;·&lt;/font&gt;" style="text;html=1;strokeColor=default;fillColor=none;align=center;verticalAlign=middle;whiteSpace=wrap;rounded=0;sketch=0;fontFamily=Times New Roman;fontSize=16;" vertex="1" parent="1">
          <mxGeometry x="300" y="507" width="20" height="20" as="geometry" />
        </mxCell>
        <mxCell id="WUI7d0x4xuRXz8EVybFa-21" value="&lt;font style=&quot;font-size: 55px&quot; color=&quot;#cc6600&quot;&gt;·&lt;/font&gt;" style="text;html=1;strokeColor=default;fillColor=none;align=center;verticalAlign=middle;whiteSpace=wrap;rounded=0;sketch=0;fontFamily=Times New Roman;fontSize=16;" vertex="1" parent="1">
          <mxGeometry x="280" y="527" width="20" height="20" as="geometry" />
        </mxCell>
        <mxCell id="WUI7d0x4xuRXz8EVybFa-22" value="0" style="text;html=1;strokeColor=default;fillColor=none;align=center;verticalAlign=middle;whiteSpace=wrap;rounded=0;sketch=0;fontFamily=Times New Roman;fontSize=16;" vertex="1" parent="1">
          <mxGeometry x="320" y="507" width="20" height="20" as="geometry" />
        </mxCell>
        <mxCell id="WUI7d0x4xuRXz8EVybFa-23" value="0" style="text;html=1;strokeColor=default;fillColor=none;align=center;verticalAlign=middle;whiteSpace=wrap;rounded=0;sketch=0;fontFamily=Times New Roman;fontSize=16;" vertex="1" parent="1">
          <mxGeometry x="340" y="527" width="20" height="20" as="geometry" />
        </mxCell>
        <mxCell id="WUI7d0x4xuRXz8EVybFa-24" value="&lt;font style=&quot;font-size: 55px&quot; color=&quot;#cc6600&quot;&gt;·&lt;/font&gt;" style="text;html=1;strokeColor=default;fillColor=none;align=center;verticalAlign=middle;whiteSpace=wrap;rounded=0;sketch=0;fontFamily=Times New Roman;fontSize=16;" vertex="1" parent="1">
          <mxGeometry x="340" y="507" width="20" height="20" as="geometry" />
        </mxCell>
        <mxCell id="WUI7d0x4xuRXz8EVybFa-25" value="&lt;font style=&quot;font-size: 55px&quot; color=&quot;#cc6600&quot;&gt;·&lt;/font&gt;" style="text;html=1;strokeColor=default;fillColor=none;align=center;verticalAlign=middle;whiteSpace=wrap;rounded=0;sketch=0;fontFamily=Times New Roman;fontSize=16;" vertex="1" parent="1">
          <mxGeometry x="320" y="527" width="20" height="20" as="geometry" />
        </mxCell>
        <mxCell id="WUI7d0x4xuRXz8EVybFa-26" value="0" style="text;html=1;strokeColor=default;fillColor=none;align=center;verticalAlign=middle;whiteSpace=wrap;rounded=0;sketch=0;fontFamily=Times New Roman;fontSize=16;" vertex="1" parent="1">
          <mxGeometry x="280" y="547" width="20" height="20" as="geometry" />
        </mxCell>
        <mxCell id="WUI7d0x4xuRXz8EVybFa-27" value="0" style="text;html=1;strokeColor=default;fillColor=none;align=center;verticalAlign=middle;whiteSpace=wrap;rounded=0;sketch=0;fontFamily=Times New Roman;fontSize=16;" vertex="1" parent="1">
          <mxGeometry x="300" y="567" width="20" height="20" as="geometry" />
        </mxCell>
        <mxCell id="WUI7d0x4xuRXz8EVybFa-28" value="&lt;font style=&quot;font-size: 55px&quot; color=&quot;#cc6600&quot;&gt;·&lt;/font&gt;" style="text;html=1;strokeColor=default;fillColor=none;align=center;verticalAlign=middle;whiteSpace=wrap;rounded=0;sketch=0;fontFamily=Times New Roman;fontSize=16;" vertex="1" parent="1">
          <mxGeometry x="300" y="547" width="20" height="20" as="geometry" />
        </mxCell>
        <mxCell id="WUI7d0x4xuRXz8EVybFa-29" value="&lt;font style=&quot;font-size: 55px&quot; color=&quot;#cc6600&quot;&gt;·&lt;/font&gt;" style="text;html=1;strokeColor=default;fillColor=none;align=center;verticalAlign=middle;whiteSpace=wrap;rounded=0;sketch=0;fontFamily=Times New Roman;fontSize=16;" vertex="1" parent="1">
          <mxGeometry x="280" y="567" width="20" height="20" as="geometry" />
        </mxCell>
        <mxCell id="WUI7d0x4xuRXz8EVybFa-30" value="0" style="text;html=1;strokeColor=default;fillColor=none;align=center;verticalAlign=middle;whiteSpace=wrap;rounded=0;sketch=0;fontFamily=Times New Roman;fontSize=16;" vertex="1" parent="1">
          <mxGeometry x="320" y="547" width="20" height="20" as="geometry" />
        </mxCell>
        <mxCell id="WUI7d0x4xuRXz8EVybFa-31" value="0" style="text;html=1;strokeColor=default;fillColor=none;align=center;verticalAlign=middle;whiteSpace=wrap;rounded=0;sketch=0;fontFamily=Times New Roman;fontSize=16;" vertex="1" parent="1">
          <mxGeometry x="340" y="567" width="20" height="20" as="geometry" />
        </mxCell>
        <mxCell id="WUI7d0x4xuRXz8EVybFa-32" value="&lt;font style=&quot;font-size: 55px&quot; color=&quot;#cc6600&quot;&gt;·&lt;/font&gt;" style="text;html=1;strokeColor=default;fillColor=none;align=center;verticalAlign=middle;whiteSpace=wrap;rounded=0;sketch=0;fontFamily=Times New Roman;fontSize=16;" vertex="1" parent="1">
          <mxGeometry x="340" y="547" width="20" height="20" as="geometry" />
        </mxCell>
        <mxCell id="WUI7d0x4xuRXz8EVybFa-33" value="&lt;font style=&quot;font-size: 55px&quot; color=&quot;#cc6600&quot;&gt;·&lt;/font&gt;" style="text;html=1;strokeColor=default;fillColor=none;align=center;verticalAlign=middle;whiteSpace=wrap;rounded=0;sketch=0;fontFamily=Times New Roman;fontSize=16;" vertex="1" parent="1">
          <mxGeometry x="320" y="567" width="20" height="20" as="geometry" />
        </mxCell>
        <mxCell id="WUI7d0x4xuRXz8EVybFa-35" value="0" style="text;html=1;strokeColor=default;fillColor=none;align=center;verticalAlign=middle;whiteSpace=wrap;rounded=0;sketch=0;fontFamily=Times New Roman;fontSize=16;" vertex="1" parent="1">
          <mxGeometry x="220" y="607" width="20" height="20" as="geometry" />
        </mxCell>
        <mxCell id="WUI7d0x4xuRXz8EVybFa-36" style="edgeStyle=orthogonalEdgeStyle;rounded=0;orthogonalLoop=1;jettySize=auto;html=1;fontFamily=Times New Roman;fontSize=12;" edge="1" parent="1">
          <mxGeometry relative="1" as="geometry">
            <mxPoint x="330" y="677" as="sourcePoint" />
            <mxPoint x="330" y="677" as="targetPoint" />
          </mxGeometry>
        </mxCell>
        <mxCell id="WUI7d0x4xuRXz8EVybFa-37" value="&lt;font style=&quot;font-size: 55px&quot; color=&quot;#cc6600&quot;&gt;·&lt;/font&gt;" style="text;html=1;strokeColor=default;fillColor=none;align=center;verticalAlign=middle;whiteSpace=wrap;rounded=0;sketch=0;fontFamily=Times New Roman;fontSize=16;" vertex="1" parent="1">
          <mxGeometry x="220" y="587" width="20" height="20" as="geometry" />
        </mxCell>
        <mxCell id="WUI7d0x4xuRXz8EVybFa-39" value="0" style="text;html=1;strokeColor=default;fillColor=none;align=center;verticalAlign=middle;whiteSpace=wrap;rounded=0;sketch=0;fontFamily=Times New Roman;fontSize=16;" vertex="1" parent="1">
          <mxGeometry x="240" y="587" width="20" height="20" as="geometry" />
        </mxCell>
        <mxCell id="WUI7d0x4xuRXz8EVybFa-40" value="0" style="text;html=1;strokeColor=default;fillColor=none;align=center;verticalAlign=middle;whiteSpace=wrap;rounded=0;sketch=0;fontFamily=Times New Roman;fontSize=16;" vertex="1" parent="1">
          <mxGeometry x="260" y="607" width="20" height="20" as="geometry" />
        </mxCell>
        <mxCell id="WUI7d0x4xuRXz8EVybFa-41" value="&lt;font style=&quot;font-size: 55px&quot; color=&quot;#cc6600&quot;&gt;·&lt;/font&gt;" style="text;html=1;strokeColor=default;fillColor=none;align=center;verticalAlign=middle;whiteSpace=wrap;rounded=0;sketch=0;fontFamily=Times New Roman;fontSize=16;" vertex="1" parent="1">
          <mxGeometry x="260" y="587" width="20" height="20" as="geometry" />
        </mxCell>
        <mxCell id="WUI7d0x4xuRXz8EVybFa-42" value="&lt;font style=&quot;font-size: 55px&quot; color=&quot;#cc6600&quot;&gt;·&lt;/font&gt;" style="text;html=1;strokeColor=default;fillColor=none;align=center;verticalAlign=middle;whiteSpace=wrap;rounded=0;sketch=0;fontFamily=Times New Roman;fontSize=16;" vertex="1" parent="1">
          <mxGeometry x="240" y="607" width="20" height="20" as="geometry" />
        </mxCell>
        <mxCell id="WUI7d0x4xuRXz8EVybFa-44" value="0" style="text;html=1;strokeColor=default;fillColor=none;align=center;verticalAlign=middle;whiteSpace=wrap;rounded=0;sketch=0;fontFamily=Times New Roman;fontSize=16;" vertex="1" parent="1">
          <mxGeometry x="220" y="647" width="20" height="20" as="geometry" />
        </mxCell>
        <mxCell id="WUI7d0x4xuRXz8EVybFa-45" value="&lt;font style=&quot;font-size: 55px&quot; color=&quot;#cc6600&quot;&gt;·&lt;/font&gt;" style="text;html=1;strokeColor=default;fillColor=none;align=center;verticalAlign=middle;whiteSpace=wrap;rounded=0;sketch=0;fontFamily=Times New Roman;fontSize=16;" vertex="1" parent="1">
          <mxGeometry x="220" y="627" width="20" height="20" as="geometry" />
        </mxCell>
        <mxCell id="WUI7d0x4xuRXz8EVybFa-47" value="0" style="text;html=1;strokeColor=default;fillColor=none;align=center;verticalAlign=middle;whiteSpace=wrap;rounded=0;sketch=0;fontFamily=Times New Roman;fontSize=16;" vertex="1" parent="1">
          <mxGeometry x="240" y="627" width="20" height="20" as="geometry" />
        </mxCell>
        <mxCell id="WUI7d0x4xuRXz8EVybFa-48" value="0" style="text;html=1;strokeColor=default;fillColor=none;align=center;verticalAlign=middle;whiteSpace=wrap;rounded=0;sketch=0;fontFamily=Times New Roman;fontSize=16;" vertex="1" parent="1">
          <mxGeometry x="260" y="647" width="20" height="20" as="geometry" />
        </mxCell>
        <mxCell id="WUI7d0x4xuRXz8EVybFa-49" value="&lt;font style=&quot;font-size: 55px&quot; color=&quot;#cc6600&quot;&gt;·&lt;/font&gt;" style="text;html=1;strokeColor=default;fillColor=none;align=center;verticalAlign=middle;whiteSpace=wrap;rounded=0;sketch=0;fontFamily=Times New Roman;fontSize=16;" vertex="1" parent="1">
          <mxGeometry x="260" y="627" width="20" height="20" as="geometry" />
        </mxCell>
        <mxCell id="WUI7d0x4xuRXz8EVybFa-50" value="&lt;font style=&quot;font-size: 55px&quot; color=&quot;#cc6600&quot;&gt;·&lt;/font&gt;" style="text;html=1;strokeColor=default;fillColor=none;align=center;verticalAlign=middle;whiteSpace=wrap;rounded=0;sketch=0;fontFamily=Times New Roman;fontSize=16;" vertex="1" parent="1">
          <mxGeometry x="240" y="647" width="20" height="20" as="geometry" />
        </mxCell>
        <mxCell id="WUI7d0x4xuRXz8EVybFa-51" value="0" style="text;html=1;strokeColor=default;fillColor=none;align=center;verticalAlign=middle;whiteSpace=wrap;rounded=0;sketch=0;fontFamily=Times New Roman;fontSize=16;" vertex="1" parent="1">
          <mxGeometry x="280" y="587" width="20" height="20" as="geometry" />
        </mxCell>
        <mxCell id="WUI7d0x4xuRXz8EVybFa-52" value="0" style="text;html=1;strokeColor=default;fillColor=none;align=center;verticalAlign=middle;whiteSpace=wrap;rounded=0;sketch=0;fontFamily=Times New Roman;fontSize=16;" vertex="1" parent="1">
          <mxGeometry x="300" y="607" width="20" height="20" as="geometry" />
        </mxCell>
        <mxCell id="WUI7d0x4xuRXz8EVybFa-53" value="&lt;font style=&quot;font-size: 55px&quot; color=&quot;#cc6600&quot;&gt;·&lt;/font&gt;" style="text;html=1;strokeColor=default;fillColor=none;align=center;verticalAlign=middle;whiteSpace=wrap;rounded=0;sketch=0;fontFamily=Times New Roman;fontSize=16;" vertex="1" parent="1">
          <mxGeometry x="300" y="587" width="20" height="20" as="geometry" />
        </mxCell>
        <mxCell id="WUI7d0x4xuRXz8EVybFa-54" value="&lt;font style=&quot;font-size: 55px&quot; color=&quot;#cc6600&quot;&gt;·&lt;/font&gt;" style="text;html=1;strokeColor=default;fillColor=none;align=center;verticalAlign=middle;whiteSpace=wrap;rounded=0;sketch=0;fontFamily=Times New Roman;fontSize=16;" vertex="1" parent="1">
          <mxGeometry x="280" y="607" width="20" height="20" as="geometry" />
        </mxCell>
        <mxCell id="WUI7d0x4xuRXz8EVybFa-55" value="0" style="text;html=1;strokeColor=default;fillColor=none;align=center;verticalAlign=middle;whiteSpace=wrap;rounded=0;sketch=0;fontFamily=Times New Roman;fontSize=16;" vertex="1" parent="1">
          <mxGeometry x="320" y="587" width="20" height="20" as="geometry" />
        </mxCell>
        <mxCell id="WUI7d0x4xuRXz8EVybFa-56" value="0" style="text;html=1;strokeColor=default;fillColor=none;align=center;verticalAlign=middle;whiteSpace=wrap;rounded=0;sketch=0;fontFamily=Times New Roman;fontSize=16;" vertex="1" parent="1">
          <mxGeometry x="340" y="607" width="20" height="20" as="geometry" />
        </mxCell>
        <mxCell id="WUI7d0x4xuRXz8EVybFa-57" value="&lt;font style=&quot;font-size: 55px&quot; color=&quot;#cc6600&quot;&gt;·&lt;/font&gt;" style="text;html=1;strokeColor=default;fillColor=none;align=center;verticalAlign=middle;whiteSpace=wrap;rounded=0;sketch=0;fontFamily=Times New Roman;fontSize=16;" vertex="1" parent="1">
          <mxGeometry x="340" y="587" width="20" height="20" as="geometry" />
        </mxCell>
        <mxCell id="WUI7d0x4xuRXz8EVybFa-58" value="&lt;font style=&quot;font-size: 55px&quot; color=&quot;#cc6600&quot;&gt;·&lt;/font&gt;" style="text;html=1;strokeColor=default;fillColor=none;align=center;verticalAlign=middle;whiteSpace=wrap;rounded=0;sketch=0;fontFamily=Times New Roman;fontSize=16;" vertex="1" parent="1">
          <mxGeometry x="320" y="607" width="20" height="20" as="geometry" />
        </mxCell>
        <mxCell id="WUI7d0x4xuRXz8EVybFa-59" value="0" style="text;html=1;strokeColor=default;fillColor=none;align=center;verticalAlign=middle;whiteSpace=wrap;rounded=0;sketch=0;fontFamily=Times New Roman;fontSize=16;" vertex="1" parent="1">
          <mxGeometry x="280" y="627" width="20" height="20" as="geometry" />
        </mxCell>
        <mxCell id="WUI7d0x4xuRXz8EVybFa-60" value="0" style="text;html=1;strokeColor=default;fillColor=none;align=center;verticalAlign=middle;whiteSpace=wrap;rounded=0;sketch=0;fontFamily=Times New Roman;fontSize=16;" vertex="1" parent="1">
          <mxGeometry x="300" y="647" width="20" height="20" as="geometry" />
        </mxCell>
        <mxCell id="WUI7d0x4xuRXz8EVybFa-61" value="&lt;font style=&quot;font-size: 55px&quot; color=&quot;#cc6600&quot;&gt;·&lt;/font&gt;" style="text;html=1;strokeColor=default;fillColor=none;align=center;verticalAlign=middle;whiteSpace=wrap;rounded=0;sketch=0;fontFamily=Times New Roman;fontSize=16;" vertex="1" parent="1">
          <mxGeometry x="300" y="627" width="20" height="20" as="geometry" />
        </mxCell>
        <mxCell id="WUI7d0x4xuRXz8EVybFa-62" value="&lt;font style=&quot;font-size: 55px&quot; color=&quot;#cc6600&quot;&gt;·&lt;/font&gt;" style="text;html=1;strokeColor=default;fillColor=none;align=center;verticalAlign=middle;whiteSpace=wrap;rounded=0;sketch=0;fontFamily=Times New Roman;fontSize=16;" vertex="1" parent="1">
          <mxGeometry x="280" y="647" width="20" height="20" as="geometry" />
        </mxCell>
        <mxCell id="WUI7d0x4xuRXz8EVybFa-63" value="0" style="text;html=1;strokeColor=default;fillColor=none;align=center;verticalAlign=middle;whiteSpace=wrap;rounded=0;sketch=0;fontFamily=Times New Roman;fontSize=16;" vertex="1" parent="1">
          <mxGeometry x="320" y="627" width="20" height="20" as="geometry" />
        </mxCell>
        <mxCell id="WUI7d0x4xuRXz8EVybFa-64" value="0" style="text;html=1;strokeColor=default;fillColor=none;align=center;verticalAlign=middle;whiteSpace=wrap;rounded=0;sketch=0;fontFamily=Times New Roman;fontSize=16;" vertex="1" parent="1">
          <mxGeometry x="340" y="647" width="20" height="20" as="geometry" />
        </mxCell>
        <mxCell id="WUI7d0x4xuRXz8EVybFa-65" value="&lt;font style=&quot;font-size: 55px&quot; color=&quot;#cc6600&quot;&gt;·&lt;/font&gt;" style="text;html=1;strokeColor=default;fillColor=none;align=center;verticalAlign=middle;whiteSpace=wrap;rounded=0;sketch=0;fontFamily=Times New Roman;fontSize=16;" vertex="1" parent="1">
          <mxGeometry x="340" y="627" width="20" height="20" as="geometry" />
        </mxCell>
        <mxCell id="WUI7d0x4xuRXz8EVybFa-66" value="&lt;font style=&quot;font-size: 55px&quot; color=&quot;#cc6600&quot;&gt;·&lt;/font&gt;" style="text;html=1;strokeColor=default;fillColor=none;align=center;verticalAlign=middle;whiteSpace=wrap;rounded=0;sketch=0;fontFamily=Times New Roman;fontSize=16;" vertex="1" parent="1">
          <mxGeometry x="320" y="647" width="20" height="20" as="geometry" />
        </mxCell>
        <mxCell id="WUI7d0x4xuRXz8EVybFa-106" value="0" style="text;html=1;strokeColor=default;fillColor=none;align=center;verticalAlign=middle;whiteSpace=wrap;rounded=0;sketch=0;fontFamily=Times New Roman;fontSize=16;" vertex="1" parent="1">
          <mxGeometry x="180" y="527" width="20" height="20" as="geometry" />
        </mxCell>
        <mxCell id="WUI7d0x4xuRXz8EVybFa-107" value="&lt;font style=&quot;font-size: 55px&quot; color=&quot;#cc6600&quot;&gt;·&lt;/font&gt;" style="text;html=1;strokeColor=default;fillColor=none;align=center;verticalAlign=middle;whiteSpace=wrap;rounded=0;sketch=0;fontFamily=Times New Roman;fontSize=16;" vertex="1" parent="1">
          <mxGeometry x="180" y="507" width="20" height="20" as="geometry" />
        </mxCell>
        <mxCell id="WUI7d0x4xuRXz8EVybFa-108" value="0" style="text;html=1;strokeColor=default;fillColor=none;align=center;verticalAlign=middle;whiteSpace=wrap;rounded=0;sketch=0;fontFamily=Times New Roman;fontSize=16;" vertex="1" parent="1">
          <mxGeometry x="200" y="507" width="20" height="20" as="geometry" />
        </mxCell>
        <mxCell id="WUI7d0x4xuRXz8EVybFa-109" value="&lt;font style=&quot;font-size: 55px&quot; color=&quot;#cc6600&quot;&gt;·&lt;/font&gt;" style="text;html=1;strokeColor=default;fillColor=none;align=center;verticalAlign=middle;whiteSpace=wrap;rounded=0;sketch=0;fontFamily=Times New Roman;fontSize=16;" vertex="1" parent="1">
          <mxGeometry x="200" y="527" width="20" height="20" as="geometry" />
        </mxCell>
        <mxCell id="WUI7d0x4xuRXz8EVybFa-110" value="0" style="text;html=1;strokeColor=default;fillColor=none;align=center;verticalAlign=middle;whiteSpace=wrap;rounded=0;sketch=0;fontFamily=Times New Roman;fontSize=16;" vertex="1" parent="1">
          <mxGeometry x="180" y="567" width="20" height="20" as="geometry" />
        </mxCell>
        <mxCell id="WUI7d0x4xuRXz8EVybFa-111" value="&lt;font style=&quot;font-size: 55px&quot; color=&quot;#cc6600&quot;&gt;·&lt;/font&gt;" style="text;html=1;strokeColor=default;fillColor=none;align=center;verticalAlign=middle;whiteSpace=wrap;rounded=0;sketch=0;fontFamily=Times New Roman;fontSize=16;" vertex="1" parent="1">
          <mxGeometry x="180" y="547" width="20" height="20" as="geometry" />
        </mxCell>
        <mxCell id="WUI7d0x4xuRXz8EVybFa-112" value="0" style="text;html=1;strokeColor=default;fillColor=none;align=center;verticalAlign=middle;whiteSpace=wrap;rounded=0;sketch=0;fontFamily=Times New Roman;fontSize=16;" vertex="1" parent="1">
          <mxGeometry x="200" y="547" width="20" height="20" as="geometry" />
        </mxCell>
        <mxCell id="WUI7d0x4xuRXz8EVybFa-113" value="&lt;font style=&quot;font-size: 55px&quot; color=&quot;#cc6600&quot;&gt;·&lt;/font&gt;" style="text;html=1;strokeColor=default;fillColor=none;align=center;verticalAlign=middle;whiteSpace=wrap;rounded=0;sketch=0;fontFamily=Times New Roman;fontSize=16;" vertex="1" parent="1">
          <mxGeometry x="200" y="567" width="20" height="20" as="geometry" />
        </mxCell>
        <mxCell id="WUI7d0x4xuRXz8EVybFa-114" value="0" style="text;html=1;strokeColor=default;fillColor=none;align=center;verticalAlign=middle;whiteSpace=wrap;rounded=0;sketch=0;fontFamily=Times New Roman;fontSize=16;" vertex="1" parent="1">
          <mxGeometry x="180" y="607" width="20" height="20" as="geometry" />
        </mxCell>
        <mxCell id="WUI7d0x4xuRXz8EVybFa-115" value="&lt;font style=&quot;font-size: 55px&quot; color=&quot;#cc6600&quot;&gt;·&lt;/font&gt;" style="text;html=1;strokeColor=default;fillColor=none;align=center;verticalAlign=middle;whiteSpace=wrap;rounded=0;sketch=0;fontFamily=Times New Roman;fontSize=16;" vertex="1" parent="1">
          <mxGeometry x="180" y="587" width="20" height="20" as="geometry" />
        </mxCell>
        <mxCell id="WUI7d0x4xuRXz8EVybFa-116" value="0" style="text;html=1;strokeColor=default;fillColor=none;align=center;verticalAlign=middle;whiteSpace=wrap;rounded=0;sketch=0;fontFamily=Times New Roman;fontSize=16;" vertex="1" parent="1">
          <mxGeometry x="200" y="587" width="20" height="20" as="geometry" />
        </mxCell>
        <mxCell id="WUI7d0x4xuRXz8EVybFa-117" value="&lt;font style=&quot;font-size: 55px&quot; color=&quot;#cc6600&quot;&gt;·&lt;/font&gt;" style="text;html=1;strokeColor=default;fillColor=none;align=center;verticalAlign=middle;whiteSpace=wrap;rounded=0;sketch=0;fontFamily=Times New Roman;fontSize=16;" vertex="1" parent="1">
          <mxGeometry x="200" y="607" width="20" height="20" as="geometry" />
        </mxCell>
        <mxCell id="WUI7d0x4xuRXz8EVybFa-118" value="0" style="text;html=1;strokeColor=default;fillColor=none;align=center;verticalAlign=middle;whiteSpace=wrap;rounded=0;sketch=0;fontFamily=Times New Roman;fontSize=16;" vertex="1" parent="1">
          <mxGeometry x="180" y="647" width="20" height="20" as="geometry" />
        </mxCell>
        <mxCell id="WUI7d0x4xuRXz8EVybFa-119" value="&lt;font style=&quot;font-size: 55px&quot; color=&quot;#cc6600&quot;&gt;·&lt;/font&gt;" style="text;html=1;strokeColor=default;fillColor=none;align=center;verticalAlign=middle;whiteSpace=wrap;rounded=0;sketch=0;fontFamily=Times New Roman;fontSize=16;" vertex="1" parent="1">
          <mxGeometry x="180" y="627" width="20" height="20" as="geometry" />
        </mxCell>
        <mxCell id="WUI7d0x4xuRXz8EVybFa-120" value="0" style="text;html=1;strokeColor=default;fillColor=none;align=center;verticalAlign=middle;whiteSpace=wrap;rounded=0;sketch=0;fontFamily=Times New Roman;fontSize=16;" vertex="1" parent="1">
          <mxGeometry x="200" y="627" width="20" height="20" as="geometry" />
        </mxCell>
        <mxCell id="WUI7d0x4xuRXz8EVybFa-121" value="&lt;font style=&quot;font-size: 55px&quot; color=&quot;#cc6600&quot;&gt;·&lt;/font&gt;" style="text;html=1;strokeColor=default;fillColor=none;align=center;verticalAlign=middle;whiteSpace=wrap;rounded=0;sketch=0;fontFamily=Times New Roman;fontSize=16;" vertex="1" parent="1">
          <mxGeometry x="200" y="647" width="20" height="20" as="geometry" />
        </mxCell>
        <mxCell id="WUI7d0x4xuRXz8EVybFa-131" style="edgeStyle=orthogonalEdgeStyle;rounded=0;orthogonalLoop=1;jettySize=auto;html=1;fontFamily=Times New Roman;fontSize=12;" edge="1" parent="1">
          <mxGeometry relative="1" as="geometry">
            <mxPoint x="330" y="717" as="sourcePoint" />
            <mxPoint x="330" y="717" as="targetPoint" />
          </mxGeometry>
        </mxCell>
        <mxCell id="WUI7d0x4xuRXz8EVybFa-132" value="0" style="text;html=1;strokeColor=default;fillColor=none;align=center;verticalAlign=middle;whiteSpace=wrap;rounded=0;sketch=0;fontFamily=Times New Roman;fontSize=16;" vertex="1" parent="1">
          <mxGeometry x="220" y="687" width="20" height="20" as="geometry" />
        </mxCell>
        <mxCell id="WUI7d0x4xuRXz8EVybFa-133" value="&lt;font style=&quot;font-size: 55px&quot; color=&quot;#cc6600&quot;&gt;·&lt;/font&gt;" style="text;html=1;strokeColor=default;fillColor=none;align=center;verticalAlign=middle;whiteSpace=wrap;rounded=0;sketch=0;fontFamily=Times New Roman;fontSize=16;" vertex="1" parent="1">
          <mxGeometry x="220" y="667" width="20" height="20" as="geometry" />
        </mxCell>
        <mxCell id="WUI7d0x4xuRXz8EVybFa-134" value="0" style="text;html=1;strokeColor=default;fillColor=none;align=center;verticalAlign=middle;whiteSpace=wrap;rounded=0;sketch=0;fontFamily=Times New Roman;fontSize=16;" vertex="1" parent="1">
          <mxGeometry x="240" y="667" width="20" height="20" as="geometry" />
        </mxCell>
        <mxCell id="WUI7d0x4xuRXz8EVybFa-135" value="0" style="text;html=1;strokeColor=default;fillColor=none;align=center;verticalAlign=middle;whiteSpace=wrap;rounded=0;sketch=0;fontFamily=Times New Roman;fontSize=16;" vertex="1" parent="1">
          <mxGeometry x="260" y="687" width="20" height="20" as="geometry" />
        </mxCell>
        <mxCell id="WUI7d0x4xuRXz8EVybFa-136" value="&lt;font style=&quot;font-size: 55px&quot; color=&quot;#cc6600&quot;&gt;·&lt;/font&gt;" style="text;html=1;strokeColor=default;fillColor=none;align=center;verticalAlign=middle;whiteSpace=wrap;rounded=0;sketch=0;fontFamily=Times New Roman;fontSize=16;" vertex="1" parent="1">
          <mxGeometry x="260" y="667" width="20" height="20" as="geometry" />
        </mxCell>
        <mxCell id="WUI7d0x4xuRXz8EVybFa-137" value="&lt;font style=&quot;font-size: 55px&quot; color=&quot;#cc6600&quot;&gt;·&lt;/font&gt;" style="text;html=1;strokeColor=default;fillColor=none;align=center;verticalAlign=middle;whiteSpace=wrap;rounded=0;sketch=0;fontFamily=Times New Roman;fontSize=16;" vertex="1" parent="1">
          <mxGeometry x="240" y="687" width="20" height="20" as="geometry" />
        </mxCell>
        <mxCell id="WUI7d0x4xuRXz8EVybFa-138" value="0" style="text;html=1;strokeColor=default;fillColor=none;align=center;verticalAlign=middle;whiteSpace=wrap;rounded=0;sketch=0;fontFamily=Times New Roman;fontSize=16;" vertex="1" parent="1">
          <mxGeometry x="280" y="667" width="20" height="20" as="geometry" />
        </mxCell>
        <mxCell id="WUI7d0x4xuRXz8EVybFa-139" value="0" style="text;html=1;strokeColor=default;fillColor=none;align=center;verticalAlign=middle;whiteSpace=wrap;rounded=0;sketch=0;fontFamily=Times New Roman;fontSize=16;" vertex="1" parent="1">
          <mxGeometry x="300" y="687" width="20" height="20" as="geometry" />
        </mxCell>
        <mxCell id="WUI7d0x4xuRXz8EVybFa-140" value="&lt;font style=&quot;font-size: 55px&quot; color=&quot;#cc6600&quot;&gt;·&lt;/font&gt;" style="text;html=1;strokeColor=default;fillColor=none;align=center;verticalAlign=middle;whiteSpace=wrap;rounded=0;sketch=0;fontFamily=Times New Roman;fontSize=16;" vertex="1" parent="1">
          <mxGeometry x="300" y="667" width="20" height="20" as="geometry" />
        </mxCell>
        <mxCell id="WUI7d0x4xuRXz8EVybFa-141" value="&lt;font style=&quot;font-size: 55px&quot; color=&quot;#cc6600&quot;&gt;·&lt;/font&gt;" style="text;html=1;strokeColor=default;fillColor=none;align=center;verticalAlign=middle;whiteSpace=wrap;rounded=0;sketch=0;fontFamily=Times New Roman;fontSize=16;" vertex="1" parent="1">
          <mxGeometry x="280" y="687" width="20" height="20" as="geometry" />
        </mxCell>
        <mxCell id="WUI7d0x4xuRXz8EVybFa-142" value="0" style="text;html=1;strokeColor=default;fillColor=none;align=center;verticalAlign=middle;whiteSpace=wrap;rounded=0;sketch=0;fontFamily=Times New Roman;fontSize=16;" vertex="1" parent="1">
          <mxGeometry x="320" y="667" width="20" height="20" as="geometry" />
        </mxCell>
        <mxCell id="WUI7d0x4xuRXz8EVybFa-143" value="0" style="text;html=1;strokeColor=default;fillColor=none;align=center;verticalAlign=middle;whiteSpace=wrap;rounded=0;sketch=0;fontFamily=Times New Roman;fontSize=16;" vertex="1" parent="1">
          <mxGeometry x="340" y="687" width="20" height="20" as="geometry" />
        </mxCell>
        <mxCell id="WUI7d0x4xuRXz8EVybFa-144" value="&lt;font style=&quot;font-size: 55px&quot; color=&quot;#cc6600&quot;&gt;·&lt;/font&gt;" style="text;html=1;strokeColor=default;fillColor=none;align=center;verticalAlign=middle;whiteSpace=wrap;rounded=0;sketch=0;fontFamily=Times New Roman;fontSize=16;" vertex="1" parent="1">
          <mxGeometry x="340" y="667" width="20" height="20" as="geometry" />
        </mxCell>
        <mxCell id="WUI7d0x4xuRXz8EVybFa-145" value="&lt;font style=&quot;font-size: 55px&quot; color=&quot;#cc6600&quot;&gt;·&lt;/font&gt;" style="text;html=1;strokeColor=default;fillColor=none;align=center;verticalAlign=middle;whiteSpace=wrap;rounded=0;sketch=0;fontFamily=Times New Roman;fontSize=16;" vertex="1" parent="1">
          <mxGeometry x="320" y="687" width="20" height="20" as="geometry" />
        </mxCell>
        <mxCell id="WUI7d0x4xuRXz8EVybFa-146" value="0" style="text;html=1;strokeColor=default;fillColor=none;align=center;verticalAlign=middle;whiteSpace=wrap;rounded=0;sketch=0;fontFamily=Times New Roman;fontSize=16;" vertex="1" parent="1">
          <mxGeometry x="180" y="687" width="20" height="20" as="geometry" />
        </mxCell>
        <mxCell id="WUI7d0x4xuRXz8EVybFa-147" value="&lt;font style=&quot;font-size: 55px&quot; color=&quot;#cc6600&quot;&gt;·&lt;/font&gt;" style="text;html=1;strokeColor=default;fillColor=none;align=center;verticalAlign=middle;whiteSpace=wrap;rounded=0;sketch=0;fontFamily=Times New Roman;fontSize=16;" vertex="1" parent="1">
          <mxGeometry x="180" y="667" width="20" height="20" as="geometry" />
        </mxCell>
        <mxCell id="WUI7d0x4xuRXz8EVybFa-148" value="0" style="text;html=1;strokeColor=default;fillColor=none;align=center;verticalAlign=middle;whiteSpace=wrap;rounded=0;sketch=0;fontFamily=Times New Roman;fontSize=16;" vertex="1" parent="1">
          <mxGeometry x="200" y="667" width="20" height="20" as="geometry" />
        </mxCell>
        <mxCell id="WUI7d0x4xuRXz8EVybFa-149" value="&lt;font style=&quot;font-size: 55px&quot; color=&quot;#cc6600&quot;&gt;·&lt;/font&gt;" style="text;html=1;strokeColor=default;fillColor=none;align=center;verticalAlign=middle;whiteSpace=wrap;rounded=0;sketch=0;fontFamily=Times New Roman;fontSize=16;" vertex="1" parent="1">
          <mxGeometry x="200" y="687" width="20" height="20" as="geometry" />
        </mxCell>
        <mxCell id="WUI7d0x4xuRXz8EVybFa-150" value="0" style="text;html=1;strokeColor=default;fillColor=none;align=center;verticalAlign=middle;whiteSpace=wrap;rounded=0;sketch=0;fontFamily=Times New Roman;fontSize=16;" vertex="1" parent="1">
          <mxGeometry x="360" y="507" width="20" height="20" as="geometry" />
        </mxCell>
        <mxCell id="WUI7d0x4xuRXz8EVybFa-152" value="0" style="text;html=1;strokeColor=default;fillColor=none;align=center;verticalAlign=middle;whiteSpace=wrap;rounded=0;sketch=0;fontFamily=Times New Roman;fontSize=16;" vertex="1" parent="1">
          <mxGeometry x="360" y="547" width="20" height="20" as="geometry" />
        </mxCell>
        <mxCell id="WUI7d0x4xuRXz8EVybFa-153" value="&lt;font style=&quot;font-size: 55px&quot; color=&quot;#cc6600&quot;&gt;·&lt;/font&gt;" style="text;html=1;strokeColor=default;fillColor=none;align=center;verticalAlign=middle;whiteSpace=wrap;rounded=0;sketch=0;fontFamily=Times New Roman;fontSize=16;" vertex="1" parent="1">
          <mxGeometry x="360" y="527" width="20" height="20" as="geometry" />
        </mxCell>
        <mxCell id="WUI7d0x4xuRXz8EVybFa-154" value="0" style="text;html=1;strokeColor=default;fillColor=none;align=center;verticalAlign=middle;whiteSpace=wrap;rounded=0;sketch=0;fontFamily=Times New Roman;fontSize=16;" vertex="1" parent="1">
          <mxGeometry x="360" y="587" width="20" height="20" as="geometry" />
        </mxCell>
        <mxCell id="WUI7d0x4xuRXz8EVybFa-155" value="&lt;font style=&quot;font-size: 55px&quot; color=&quot;#cc6600&quot;&gt;·&lt;/font&gt;" style="text;html=1;strokeColor=default;fillColor=none;align=center;verticalAlign=middle;whiteSpace=wrap;rounded=0;sketch=0;fontFamily=Times New Roman;fontSize=16;" vertex="1" parent="1">
          <mxGeometry x="360" y="567" width="20" height="20" as="geometry" />
        </mxCell>
        <mxCell id="WUI7d0x4xuRXz8EVybFa-156" value="0" style="text;html=1;strokeColor=default;fillColor=none;align=center;verticalAlign=middle;whiteSpace=wrap;rounded=0;sketch=0;fontFamily=Times New Roman;fontSize=16;" vertex="1" parent="1">
          <mxGeometry x="360" y="627" width="20" height="20" as="geometry" />
        </mxCell>
        <mxCell id="WUI7d0x4xuRXz8EVybFa-157" value="&lt;font style=&quot;font-size: 55px&quot; color=&quot;#cc6600&quot;&gt;·&lt;/font&gt;" style="text;html=1;strokeColor=default;fillColor=none;align=center;verticalAlign=middle;whiteSpace=wrap;rounded=0;sketch=0;fontFamily=Times New Roman;fontSize=16;" vertex="1" parent="1">
          <mxGeometry x="360" y="607" width="20" height="20" as="geometry" />
        </mxCell>
        <mxCell id="WUI7d0x4xuRXz8EVybFa-158" value="0" style="text;html=1;strokeColor=default;fillColor=none;align=center;verticalAlign=middle;whiteSpace=wrap;rounded=0;sketch=0;fontFamily=Times New Roman;fontSize=16;" vertex="1" parent="1">
          <mxGeometry x="360" y="667" width="20" height="20" as="geometry" />
        </mxCell>
        <mxCell id="WUI7d0x4xuRXz8EVybFa-159" value="&lt;font style=&quot;font-size: 55px&quot; color=&quot;#cc6600&quot;&gt;·&lt;/font&gt;" style="text;html=1;strokeColor=default;fillColor=none;align=center;verticalAlign=middle;whiteSpace=wrap;rounded=0;sketch=0;fontFamily=Times New Roman;fontSize=16;" vertex="1" parent="1">
          <mxGeometry x="360" y="647" width="20" height="20" as="geometry" />
        </mxCell>
        <mxCell id="WUI7d0x4xuRXz8EVybFa-160" value="&lt;font style=&quot;font-size: 55px&quot; color=&quot;#cc6600&quot;&gt;·&lt;/font&gt;" style="text;html=1;strokeColor=default;fillColor=none;align=center;verticalAlign=middle;whiteSpace=wrap;rounded=0;sketch=0;fontFamily=Times New Roman;fontSize=16;" vertex="1" parent="1">
          <mxGeometry x="360" y="687" width="20" height="20" as="geometry" />
        </mxCell>
        <mxCell id="WUI7d0x4xuRXz8EVybFa-161" value="0" style="text;html=1;strokeColor=default;fillColor=none;align=center;verticalAlign=middle;whiteSpace=wrap;rounded=0;sketch=0;fontFamily=Times New Roman;fontSize=16;" vertex="1" parent="1">
          <mxGeometry x="510" y="527" width="20" height="20" as="geometry" />
        </mxCell>
        <mxCell id="WUI7d0x4xuRXz8EVybFa-162" style="edgeStyle=orthogonalEdgeStyle;rounded=0;orthogonalLoop=1;jettySize=auto;html=1;fontFamily=Times New Roman;fontSize=12;" edge="1" parent="1">
          <mxGeometry relative="1" as="geometry">
            <mxPoint x="620" y="597" as="sourcePoint" />
            <mxPoint x="620" y="597" as="targetPoint" />
          </mxGeometry>
        </mxCell>
        <mxCell id="WUI7d0x4xuRXz8EVybFa-163" value="&lt;font style=&quot;font-size: 55px&quot; color=&quot;#cc6600&quot;&gt;·&lt;/font&gt;" style="text;html=1;strokeColor=default;fillColor=none;align=center;verticalAlign=middle;whiteSpace=wrap;rounded=0;sketch=0;fontFamily=Times New Roman;fontSize=16;" vertex="1" parent="1">
          <mxGeometry x="510" y="507" width="20" height="20" as="geometry" />
        </mxCell>
        <mxCell id="WUI7d0x4xuRXz8EVybFa-164" value="0" style="text;html=1;strokeColor=default;fillColor=none;align=center;verticalAlign=middle;whiteSpace=wrap;rounded=0;sketch=0;fontFamily=Times New Roman;fontSize=16;" vertex="1" parent="1">
          <mxGeometry x="530" y="507" width="20" height="20" as="geometry" />
        </mxCell>
        <mxCell id="WUI7d0x4xuRXz8EVybFa-165" value="0" style="text;html=1;strokeColor=default;fillColor=none;align=center;verticalAlign=middle;whiteSpace=wrap;rounded=0;sketch=0;fontFamily=Times New Roman;fontSize=16;" vertex="1" parent="1">
          <mxGeometry x="550" y="527" width="20" height="20" as="geometry" />
        </mxCell>
        <mxCell id="WUI7d0x4xuRXz8EVybFa-166" value="&lt;font style=&quot;font-size: 55px&quot; color=&quot;#cc6600&quot;&gt;·&lt;/font&gt;" style="text;html=1;strokeColor=default;fillColor=none;align=center;verticalAlign=middle;whiteSpace=wrap;rounded=0;sketch=0;fontFamily=Times New Roman;fontSize=16;" vertex="1" parent="1">
          <mxGeometry x="550" y="507" width="20" height="20" as="geometry" />
        </mxCell>
        <mxCell id="WUI7d0x4xuRXz8EVybFa-167" value="&lt;font style=&quot;font-size: 55px&quot; color=&quot;#cc6600&quot;&gt;·&lt;/font&gt;" style="text;html=1;strokeColor=default;fillColor=none;align=center;verticalAlign=middle;whiteSpace=wrap;rounded=0;sketch=0;fontFamily=Times New Roman;fontSize=16;" vertex="1" parent="1">
          <mxGeometry x="530" y="527" width="20" height="20" as="geometry" />
        </mxCell>
        <mxCell id="WUI7d0x4xuRXz8EVybFa-168" value="0" style="text;html=1;strokeColor=default;fillColor=none;align=center;verticalAlign=middle;whiteSpace=wrap;rounded=0;sketch=0;fontFamily=Times New Roman;fontSize=16;" vertex="1" parent="1">
          <mxGeometry x="510" y="567" width="20" height="20" as="geometry" />
        </mxCell>
        <mxCell id="WUI7d0x4xuRXz8EVybFa-169" value="&lt;font style=&quot;font-size: 55px&quot; color=&quot;#cc6600&quot;&gt;·&lt;/font&gt;" style="text;html=1;strokeColor=default;fillColor=none;align=center;verticalAlign=middle;whiteSpace=wrap;rounded=0;sketch=0;fontFamily=Times New Roman;fontSize=16;" vertex="1" parent="1">
          <mxGeometry x="510" y="547" width="20" height="20" as="geometry" />
        </mxCell>
        <mxCell id="WUI7d0x4xuRXz8EVybFa-170" value="0" style="text;html=1;strokeColor=default;fillColor=none;align=center;verticalAlign=middle;whiteSpace=wrap;rounded=0;sketch=0;fontFamily=Times New Roman;fontSize=16;" vertex="1" parent="1">
          <mxGeometry x="530" y="547" width="20" height="20" as="geometry" />
        </mxCell>
        <mxCell id="WUI7d0x4xuRXz8EVybFa-171" value="0" style="text;html=1;strokeColor=default;fillColor=none;align=center;verticalAlign=middle;whiteSpace=wrap;rounded=0;sketch=0;fontFamily=Times New Roman;fontSize=16;" vertex="1" parent="1">
          <mxGeometry x="550" y="567" width="20" height="20" as="geometry" />
        </mxCell>
        <mxCell id="WUI7d0x4xuRXz8EVybFa-172" value="&lt;font style=&quot;font-size: 55px&quot; color=&quot;#cc6600&quot;&gt;·&lt;/font&gt;" style="text;html=1;strokeColor=default;fillColor=none;align=center;verticalAlign=middle;whiteSpace=wrap;rounded=0;sketch=0;fontFamily=Times New Roman;fontSize=16;" vertex="1" parent="1">
          <mxGeometry x="550" y="547" width="20" height="20" as="geometry" />
        </mxCell>
        <mxCell id="WUI7d0x4xuRXz8EVybFa-173" value="&lt;font style=&quot;font-size: 55px&quot; color=&quot;#cc6600&quot;&gt;·&lt;/font&gt;" style="text;html=1;strokeColor=default;fillColor=none;align=center;verticalAlign=middle;whiteSpace=wrap;rounded=0;sketch=0;fontFamily=Times New Roman;fontSize=16;" vertex="1" parent="1">
          <mxGeometry x="530" y="567" width="20" height="20" as="geometry" />
        </mxCell>
        <mxCell id="WUI7d0x4xuRXz8EVybFa-174" value="0" style="text;html=1;strokeColor=default;fillColor=none;align=center;verticalAlign=middle;whiteSpace=wrap;rounded=0;sketch=0;fontFamily=Times New Roman;fontSize=16;" vertex="1" parent="1">
          <mxGeometry x="570" y="507" width="20" height="20" as="geometry" />
        </mxCell>
        <mxCell id="WUI7d0x4xuRXz8EVybFa-175" value="0" style="text;html=1;strokeColor=default;fillColor=none;align=center;verticalAlign=middle;whiteSpace=wrap;rounded=0;sketch=0;fontFamily=Times New Roman;fontSize=16;" vertex="1" parent="1">
          <mxGeometry x="590" y="527" width="20" height="20" as="geometry" />
        </mxCell>
        <mxCell id="WUI7d0x4xuRXz8EVybFa-176" value="&lt;font style=&quot;font-size: 55px&quot; color=&quot;#cc6600&quot;&gt;·&lt;/font&gt;" style="text;html=1;strokeColor=default;fillColor=none;align=center;verticalAlign=middle;whiteSpace=wrap;rounded=0;sketch=0;fontFamily=Times New Roman;fontSize=16;" vertex="1" parent="1">
          <mxGeometry x="590" y="507" width="20" height="20" as="geometry" />
        </mxCell>
        <mxCell id="WUI7d0x4xuRXz8EVybFa-177" value="&lt;font style=&quot;font-size: 55px&quot; color=&quot;#cc6600&quot;&gt;·&lt;/font&gt;" style="text;html=1;strokeColor=default;fillColor=none;align=center;verticalAlign=middle;whiteSpace=wrap;rounded=0;sketch=0;fontFamily=Times New Roman;fontSize=16;" vertex="1" parent="1">
          <mxGeometry x="570" y="527" width="20" height="20" as="geometry" />
        </mxCell>
        <mxCell id="WUI7d0x4xuRXz8EVybFa-178" value="0" style="text;html=1;strokeColor=default;fillColor=none;align=center;verticalAlign=middle;whiteSpace=wrap;rounded=0;sketch=0;fontFamily=Times New Roman;fontSize=16;" vertex="1" parent="1">
          <mxGeometry x="610" y="507" width="20" height="20" as="geometry" />
        </mxCell>
        <mxCell id="WUI7d0x4xuRXz8EVybFa-179" value="0" style="text;html=1;strokeColor=default;fillColor=none;align=center;verticalAlign=middle;whiteSpace=wrap;rounded=0;sketch=0;fontFamily=Times New Roman;fontSize=16;" vertex="1" parent="1">
          <mxGeometry x="630" y="527" width="20" height="20" as="geometry" />
        </mxCell>
        <mxCell id="WUI7d0x4xuRXz8EVybFa-180" value="&lt;font style=&quot;font-size: 55px&quot; color=&quot;#cc6600&quot;&gt;·&lt;/font&gt;" style="text;html=1;strokeColor=default;fillColor=none;align=center;verticalAlign=middle;whiteSpace=wrap;rounded=0;sketch=0;fontFamily=Times New Roman;fontSize=16;" vertex="1" parent="1">
          <mxGeometry x="630" y="507" width="20" height="20" as="geometry" />
        </mxCell>
        <mxCell id="WUI7d0x4xuRXz8EVybFa-181" value="&lt;font style=&quot;font-size: 55px&quot; color=&quot;#cc6600&quot;&gt;·&lt;/font&gt;" style="text;html=1;strokeColor=default;fillColor=none;align=center;verticalAlign=middle;whiteSpace=wrap;rounded=0;sketch=0;fontFamily=Times New Roman;fontSize=16;" vertex="1" parent="1">
          <mxGeometry x="610" y="527" width="20" height="20" as="geometry" />
        </mxCell>
        <mxCell id="WUI7d0x4xuRXz8EVybFa-182" value="0" style="text;html=1;strokeColor=default;fillColor=none;align=center;verticalAlign=middle;whiteSpace=wrap;rounded=0;sketch=0;fontFamily=Times New Roman;fontSize=16;" vertex="1" parent="1">
          <mxGeometry x="570" y="547" width="20" height="20" as="geometry" />
        </mxCell>
        <mxCell id="WUI7d0x4xuRXz8EVybFa-183" value="0" style="text;html=1;strokeColor=default;fillColor=none;align=center;verticalAlign=middle;whiteSpace=wrap;rounded=0;sketch=0;fontFamily=Times New Roman;fontSize=16;" vertex="1" parent="1">
          <mxGeometry x="590" y="567" width="20" height="20" as="geometry" />
        </mxCell>
        <mxCell id="WUI7d0x4xuRXz8EVybFa-184" value="&lt;font style=&quot;font-size: 55px&quot; color=&quot;#cc6600&quot;&gt;·&lt;/font&gt;" style="text;html=1;strokeColor=default;fillColor=none;align=center;verticalAlign=middle;whiteSpace=wrap;rounded=0;sketch=0;fontFamily=Times New Roman;fontSize=16;" vertex="1" parent="1">
          <mxGeometry x="590" y="547" width="20" height="20" as="geometry" />
        </mxCell>
        <mxCell id="WUI7d0x4xuRXz8EVybFa-185" value="&lt;font style=&quot;font-size: 55px&quot; color=&quot;#cc6600&quot;&gt;·&lt;/font&gt;" style="text;html=1;strokeColor=default;fillColor=none;align=center;verticalAlign=middle;whiteSpace=wrap;rounded=0;sketch=0;fontFamily=Times New Roman;fontSize=16;" vertex="1" parent="1">
          <mxGeometry x="570" y="567" width="20" height="20" as="geometry" />
        </mxCell>
        <mxCell id="WUI7d0x4xuRXz8EVybFa-186" value="0" style="text;html=1;strokeColor=default;fillColor=none;align=center;verticalAlign=middle;whiteSpace=wrap;rounded=0;sketch=0;fontFamily=Times New Roman;fontSize=16;" vertex="1" parent="1">
          <mxGeometry x="610" y="547" width="20" height="20" as="geometry" />
        </mxCell>
        <mxCell id="WUI7d0x4xuRXz8EVybFa-187" value="0" style="text;html=1;strokeColor=default;fillColor=none;align=center;verticalAlign=middle;whiteSpace=wrap;rounded=0;sketch=0;fontFamily=Times New Roman;fontSize=16;" vertex="1" parent="1">
          <mxGeometry x="630" y="567" width="20" height="20" as="geometry" />
        </mxCell>
        <mxCell id="WUI7d0x4xuRXz8EVybFa-188" value="&lt;font style=&quot;font-size: 55px&quot; color=&quot;#cc6600&quot;&gt;·&lt;/font&gt;" style="text;html=1;strokeColor=default;fillColor=none;align=center;verticalAlign=middle;whiteSpace=wrap;rounded=0;sketch=0;fontFamily=Times New Roman;fontSize=16;" vertex="1" parent="1">
          <mxGeometry x="630" y="547" width="20" height="20" as="geometry" />
        </mxCell>
        <mxCell id="WUI7d0x4xuRXz8EVybFa-189" value="&lt;font style=&quot;font-size: 55px&quot; color=&quot;#cc6600&quot;&gt;·&lt;/font&gt;" style="text;html=1;strokeColor=default;fillColor=none;align=center;verticalAlign=middle;whiteSpace=wrap;rounded=0;sketch=0;fontFamily=Times New Roman;fontSize=16;" vertex="1" parent="1">
          <mxGeometry x="610" y="567" width="20" height="20" as="geometry" />
        </mxCell>
        <mxCell id="WUI7d0x4xuRXz8EVybFa-190" value="0" style="text;html=1;strokeColor=default;fillColor=none;align=center;verticalAlign=middle;whiteSpace=wrap;rounded=0;sketch=0;fontFamily=Times New Roman;fontSize=16;" vertex="1" parent="1">
          <mxGeometry x="510" y="607" width="20" height="20" as="geometry" />
        </mxCell>
        <mxCell id="WUI7d0x4xuRXz8EVybFa-191" style="edgeStyle=orthogonalEdgeStyle;rounded=0;orthogonalLoop=1;jettySize=auto;html=1;fontFamily=Times New Roman;fontSize=12;" edge="1" parent="1">
          <mxGeometry relative="1" as="geometry">
            <mxPoint x="620" y="677" as="sourcePoint" />
            <mxPoint x="620" y="677" as="targetPoint" />
          </mxGeometry>
        </mxCell>
        <mxCell id="WUI7d0x4xuRXz8EVybFa-192" value="&lt;font style=&quot;font-size: 55px&quot; color=&quot;#cc6600&quot;&gt;·&lt;/font&gt;" style="text;html=1;strokeColor=default;fillColor=none;align=center;verticalAlign=middle;whiteSpace=wrap;rounded=0;sketch=0;fontFamily=Times New Roman;fontSize=16;" vertex="1" parent="1">
          <mxGeometry x="510" y="587" width="20" height="20" as="geometry" />
        </mxCell>
        <mxCell id="WUI7d0x4xuRXz8EVybFa-193" value="0" style="text;html=1;strokeColor=default;fillColor=none;align=center;verticalAlign=middle;whiteSpace=wrap;rounded=0;sketch=0;fontFamily=Times New Roman;fontSize=16;" vertex="1" parent="1">
          <mxGeometry x="530" y="587" width="20" height="20" as="geometry" />
        </mxCell>
        <mxCell id="WUI7d0x4xuRXz8EVybFa-194" value="0" style="text;html=1;strokeColor=default;fillColor=none;align=center;verticalAlign=middle;whiteSpace=wrap;rounded=0;sketch=0;fontFamily=Times New Roman;fontSize=16;" vertex="1" parent="1">
          <mxGeometry x="550" y="607" width="20" height="20" as="geometry" />
        </mxCell>
        <mxCell id="WUI7d0x4xuRXz8EVybFa-195" value="&lt;font style=&quot;font-size: 55px&quot; color=&quot;#cc6600&quot;&gt;·&lt;/font&gt;" style="text;html=1;strokeColor=default;fillColor=none;align=center;verticalAlign=middle;whiteSpace=wrap;rounded=0;sketch=0;fontFamily=Times New Roman;fontSize=16;" vertex="1" parent="1">
          <mxGeometry x="550" y="587" width="20" height="20" as="geometry" />
        </mxCell>
        <mxCell id="WUI7d0x4xuRXz8EVybFa-196" value="&lt;font style=&quot;font-size: 55px&quot; color=&quot;#cc6600&quot;&gt;·&lt;/font&gt;" style="text;html=1;strokeColor=default;fillColor=none;align=center;verticalAlign=middle;whiteSpace=wrap;rounded=0;sketch=0;fontFamily=Times New Roman;fontSize=16;" vertex="1" parent="1">
          <mxGeometry x="530" y="607" width="20" height="20" as="geometry" />
        </mxCell>
        <mxCell id="WUI7d0x4xuRXz8EVybFa-197" value="0" style="text;html=1;strokeColor=default;fillColor=none;align=center;verticalAlign=middle;whiteSpace=wrap;rounded=0;sketch=0;fontFamily=Times New Roman;fontSize=16;" vertex="1" parent="1">
          <mxGeometry x="510" y="647" width="20" height="20" as="geometry" />
        </mxCell>
        <mxCell id="WUI7d0x4xuRXz8EVybFa-198" value="&lt;font style=&quot;font-size: 55px&quot; color=&quot;#cc6600&quot;&gt;·&lt;/font&gt;" style="text;html=1;strokeColor=default;fillColor=none;align=center;verticalAlign=middle;whiteSpace=wrap;rounded=0;sketch=0;fontFamily=Times New Roman;fontSize=16;" vertex="1" parent="1">
          <mxGeometry x="510" y="627" width="20" height="20" as="geometry" />
        </mxCell>
        <mxCell id="WUI7d0x4xuRXz8EVybFa-199" value="0" style="text;html=1;strokeColor=default;fillColor=none;align=center;verticalAlign=middle;whiteSpace=wrap;rounded=0;sketch=0;fontFamily=Times New Roman;fontSize=16;" vertex="1" parent="1">
          <mxGeometry x="530" y="627" width="20" height="20" as="geometry" />
        </mxCell>
        <mxCell id="WUI7d0x4xuRXz8EVybFa-200" value="0" style="text;html=1;strokeColor=default;fillColor=none;align=center;verticalAlign=middle;whiteSpace=wrap;rounded=0;sketch=0;fontFamily=Times New Roman;fontSize=16;" vertex="1" parent="1">
          <mxGeometry x="550" y="647" width="20" height="20" as="geometry" />
        </mxCell>
        <mxCell id="WUI7d0x4xuRXz8EVybFa-201" value="&lt;font style=&quot;font-size: 55px&quot; color=&quot;#cc6600&quot;&gt;·&lt;/font&gt;" style="text;html=1;strokeColor=default;fillColor=none;align=center;verticalAlign=middle;whiteSpace=wrap;rounded=0;sketch=0;fontFamily=Times New Roman;fontSize=16;" vertex="1" parent="1">
          <mxGeometry x="550" y="627" width="20" height="20" as="geometry" />
        </mxCell>
        <mxCell id="WUI7d0x4xuRXz8EVybFa-202" value="&lt;font style=&quot;font-size: 55px&quot; color=&quot;#cc6600&quot;&gt;·&lt;/font&gt;" style="text;html=1;strokeColor=default;fillColor=none;align=center;verticalAlign=middle;whiteSpace=wrap;rounded=0;sketch=0;fontFamily=Times New Roman;fontSize=16;" vertex="1" parent="1">
          <mxGeometry x="530" y="647" width="20" height="20" as="geometry" />
        </mxCell>
        <mxCell id="WUI7d0x4xuRXz8EVybFa-203" value="0" style="text;html=1;strokeColor=default;fillColor=none;align=center;verticalAlign=middle;whiteSpace=wrap;rounded=0;sketch=0;fontFamily=Times New Roman;fontSize=16;" vertex="1" parent="1">
          <mxGeometry x="570" y="587" width="20" height="20" as="geometry" />
        </mxCell>
        <mxCell id="WUI7d0x4xuRXz8EVybFa-204" value="0" style="text;html=1;strokeColor=default;fillColor=none;align=center;verticalAlign=middle;whiteSpace=wrap;rounded=0;sketch=0;fontFamily=Times New Roman;fontSize=16;" vertex="1" parent="1">
          <mxGeometry x="590" y="607" width="20" height="20" as="geometry" />
        </mxCell>
        <mxCell id="WUI7d0x4xuRXz8EVybFa-205" value="&lt;font style=&quot;font-size: 55px&quot; color=&quot;#cc6600&quot;&gt;·&lt;/font&gt;" style="text;html=1;strokeColor=default;fillColor=none;align=center;verticalAlign=middle;whiteSpace=wrap;rounded=0;sketch=0;fontFamily=Times New Roman;fontSize=16;" vertex="1" parent="1">
          <mxGeometry x="590" y="587" width="20" height="20" as="geometry" />
        </mxCell>
        <mxCell id="WUI7d0x4xuRXz8EVybFa-206" value="&lt;font style=&quot;font-size: 55px&quot; color=&quot;#cc6600&quot;&gt;·&lt;/font&gt;" style="text;html=1;strokeColor=default;fillColor=none;align=center;verticalAlign=middle;whiteSpace=wrap;rounded=0;sketch=0;fontFamily=Times New Roman;fontSize=16;" vertex="1" parent="1">
          <mxGeometry x="570" y="607" width="20" height="20" as="geometry" />
        </mxCell>
        <mxCell id="WUI7d0x4xuRXz8EVybFa-207" value="0" style="text;html=1;strokeColor=default;fillColor=none;align=center;verticalAlign=middle;whiteSpace=wrap;rounded=0;sketch=0;fontFamily=Times New Roman;fontSize=16;" vertex="1" parent="1">
          <mxGeometry x="610" y="587" width="20" height="20" as="geometry" />
        </mxCell>
        <mxCell id="WUI7d0x4xuRXz8EVybFa-208" value="0" style="text;html=1;strokeColor=default;fillColor=none;align=center;verticalAlign=middle;whiteSpace=wrap;rounded=0;sketch=0;fontFamily=Times New Roman;fontSize=16;" vertex="1" parent="1">
          <mxGeometry x="630" y="607" width="20" height="20" as="geometry" />
        </mxCell>
        <mxCell id="WUI7d0x4xuRXz8EVybFa-209" value="&lt;font style=&quot;font-size: 55px&quot; color=&quot;#cc6600&quot;&gt;·&lt;/font&gt;" style="text;html=1;strokeColor=default;fillColor=none;align=center;verticalAlign=middle;whiteSpace=wrap;rounded=0;sketch=0;fontFamily=Times New Roman;fontSize=16;" vertex="1" parent="1">
          <mxGeometry x="630" y="587" width="20" height="20" as="geometry" />
        </mxCell>
        <mxCell id="WUI7d0x4xuRXz8EVybFa-210" value="&lt;font style=&quot;font-size: 55px&quot; color=&quot;#cc6600&quot;&gt;·&lt;/font&gt;" style="text;html=1;strokeColor=default;fillColor=none;align=center;verticalAlign=middle;whiteSpace=wrap;rounded=0;sketch=0;fontFamily=Times New Roman;fontSize=16;" vertex="1" parent="1">
          <mxGeometry x="610" y="607" width="20" height="20" as="geometry" />
        </mxCell>
        <mxCell id="WUI7d0x4xuRXz8EVybFa-211" value="0" style="text;html=1;strokeColor=default;fillColor=none;align=center;verticalAlign=middle;whiteSpace=wrap;rounded=0;sketch=0;fontFamily=Times New Roman;fontSize=16;" vertex="1" parent="1">
          <mxGeometry x="570" y="627" width="20" height="20" as="geometry" />
        </mxCell>
        <mxCell id="WUI7d0x4xuRXz8EVybFa-212" value="0" style="text;html=1;strokeColor=default;fillColor=none;align=center;verticalAlign=middle;whiteSpace=wrap;rounded=0;sketch=0;fontFamily=Times New Roman;fontSize=16;" vertex="1" parent="1">
          <mxGeometry x="590" y="647" width="20" height="20" as="geometry" />
        </mxCell>
        <mxCell id="WUI7d0x4xuRXz8EVybFa-213" value="&lt;font style=&quot;font-size: 55px&quot; color=&quot;#cc6600&quot;&gt;·&lt;/font&gt;" style="text;html=1;strokeColor=default;fillColor=none;align=center;verticalAlign=middle;whiteSpace=wrap;rounded=0;sketch=0;fontFamily=Times New Roman;fontSize=16;" vertex="1" parent="1">
          <mxGeometry x="590" y="627" width="20" height="20" as="geometry" />
        </mxCell>
        <mxCell id="WUI7d0x4xuRXz8EVybFa-214" value="&lt;font style=&quot;font-size: 55px&quot; color=&quot;#cc6600&quot;&gt;·&lt;/font&gt;" style="text;html=1;strokeColor=default;fillColor=none;align=center;verticalAlign=middle;whiteSpace=wrap;rounded=0;sketch=0;fontFamily=Times New Roman;fontSize=16;" vertex="1" parent="1">
          <mxGeometry x="570" y="647" width="20" height="20" as="geometry" />
        </mxCell>
        <mxCell id="WUI7d0x4xuRXz8EVybFa-215" value="0" style="text;html=1;strokeColor=default;fillColor=none;align=center;verticalAlign=middle;whiteSpace=wrap;rounded=0;sketch=0;fontFamily=Times New Roman;fontSize=16;" vertex="1" parent="1">
          <mxGeometry x="610" y="627" width="20" height="20" as="geometry" />
        </mxCell>
        <mxCell id="WUI7d0x4xuRXz8EVybFa-216" value="0" style="text;html=1;strokeColor=default;fillColor=none;align=center;verticalAlign=middle;whiteSpace=wrap;rounded=0;sketch=0;fontFamily=Times New Roman;fontSize=16;" vertex="1" parent="1">
          <mxGeometry x="630" y="647" width="20" height="20" as="geometry" />
        </mxCell>
        <mxCell id="WUI7d0x4xuRXz8EVybFa-217" value="&lt;font style=&quot;font-size: 55px&quot; color=&quot;#cc6600&quot;&gt;·&lt;/font&gt;" style="text;html=1;strokeColor=default;fillColor=none;align=center;verticalAlign=middle;whiteSpace=wrap;rounded=0;sketch=0;fontFamily=Times New Roman;fontSize=16;" vertex="1" parent="1">
          <mxGeometry x="630" y="627" width="20" height="20" as="geometry" />
        </mxCell>
        <mxCell id="WUI7d0x4xuRXz8EVybFa-218" value="&lt;font style=&quot;font-size: 55px&quot; color=&quot;#cc6600&quot;&gt;·&lt;/font&gt;" style="text;html=1;strokeColor=default;fillColor=none;align=center;verticalAlign=middle;whiteSpace=wrap;rounded=0;sketch=0;fontFamily=Times New Roman;fontSize=16;" vertex="1" parent="1">
          <mxGeometry x="610" y="647" width="20" height="20" as="geometry" />
        </mxCell>
        <mxCell id="WUI7d0x4xuRXz8EVybFa-219" value="0" style="text;html=1;strokeColor=default;fillColor=none;align=center;verticalAlign=middle;whiteSpace=wrap;rounded=0;sketch=0;fontFamily=Times New Roman;fontSize=16;" vertex="1" parent="1">
          <mxGeometry x="470" y="527" width="20" height="20" as="geometry" />
        </mxCell>
        <mxCell id="WUI7d0x4xuRXz8EVybFa-220" value="&lt;font style=&quot;font-size: 55px&quot; color=&quot;#cc6600&quot;&gt;·&lt;/font&gt;" style="text;html=1;strokeColor=default;fillColor=none;align=center;verticalAlign=middle;whiteSpace=wrap;rounded=0;sketch=0;fontFamily=Times New Roman;fontSize=16;" vertex="1" parent="1">
          <mxGeometry x="470" y="507" width="20" height="20" as="geometry" />
        </mxCell>
        <mxCell id="WUI7d0x4xuRXz8EVybFa-221" value="0" style="text;html=1;strokeColor=default;fillColor=none;align=center;verticalAlign=middle;whiteSpace=wrap;rounded=0;sketch=0;fontFamily=Times New Roman;fontSize=16;" vertex="1" parent="1">
          <mxGeometry x="490" y="507" width="20" height="20" as="geometry" />
        </mxCell>
        <mxCell id="WUI7d0x4xuRXz8EVybFa-222" value="&lt;font style=&quot;font-size: 55px&quot; color=&quot;#cc6600&quot;&gt;·&lt;/font&gt;" style="text;html=1;strokeColor=default;fillColor=none;align=center;verticalAlign=middle;whiteSpace=wrap;rounded=0;sketch=0;fontFamily=Times New Roman;fontSize=16;" vertex="1" parent="1">
          <mxGeometry x="490" y="527" width="20" height="20" as="geometry" />
        </mxCell>
        <mxCell id="WUI7d0x4xuRXz8EVybFa-223" value="0" style="text;html=1;strokeColor=default;fillColor=none;align=center;verticalAlign=middle;whiteSpace=wrap;rounded=0;sketch=0;fontFamily=Times New Roman;fontSize=16;" vertex="1" parent="1">
          <mxGeometry x="470" y="567" width="20" height="20" as="geometry" />
        </mxCell>
        <mxCell id="WUI7d0x4xuRXz8EVybFa-224" value="&lt;font style=&quot;font-size: 55px&quot; color=&quot;#cc6600&quot;&gt;·&lt;/font&gt;" style="text;html=1;strokeColor=default;fillColor=none;align=center;verticalAlign=middle;whiteSpace=wrap;rounded=0;sketch=0;fontFamily=Times New Roman;fontSize=16;" vertex="1" parent="1">
          <mxGeometry x="470" y="547" width="20" height="20" as="geometry" />
        </mxCell>
        <mxCell id="WUI7d0x4xuRXz8EVybFa-225" value="0" style="text;html=1;strokeColor=default;fillColor=none;align=center;verticalAlign=middle;whiteSpace=wrap;rounded=0;sketch=0;fontFamily=Times New Roman;fontSize=16;" vertex="1" parent="1">
          <mxGeometry x="490" y="547" width="20" height="20" as="geometry" />
        </mxCell>
        <mxCell id="WUI7d0x4xuRXz8EVybFa-226" value="&lt;font style=&quot;font-size: 55px&quot; color=&quot;#cc6600&quot;&gt;·&lt;/font&gt;" style="text;html=1;strokeColor=default;fillColor=none;align=center;verticalAlign=middle;whiteSpace=wrap;rounded=0;sketch=0;fontFamily=Times New Roman;fontSize=16;" vertex="1" parent="1">
          <mxGeometry x="490" y="567" width="20" height="20" as="geometry" />
        </mxCell>
        <mxCell id="WUI7d0x4xuRXz8EVybFa-227" value="0" style="text;html=1;strokeColor=default;fillColor=none;align=center;verticalAlign=middle;whiteSpace=wrap;rounded=0;sketch=0;fontFamily=Times New Roman;fontSize=16;" vertex="1" parent="1">
          <mxGeometry x="470" y="607" width="20" height="20" as="geometry" />
        </mxCell>
        <mxCell id="WUI7d0x4xuRXz8EVybFa-228" value="&lt;font style=&quot;font-size: 55px&quot; color=&quot;#cc6600&quot;&gt;·&lt;/font&gt;" style="text;html=1;strokeColor=default;fillColor=none;align=center;verticalAlign=middle;whiteSpace=wrap;rounded=0;sketch=0;fontFamily=Times New Roman;fontSize=16;" vertex="1" parent="1">
          <mxGeometry x="470" y="587" width="20" height="20" as="geometry" />
        </mxCell>
        <mxCell id="WUI7d0x4xuRXz8EVybFa-229" value="0" style="text;html=1;strokeColor=default;fillColor=none;align=center;verticalAlign=middle;whiteSpace=wrap;rounded=0;sketch=0;fontFamily=Times New Roman;fontSize=16;" vertex="1" parent="1">
          <mxGeometry x="490" y="587" width="20" height="20" as="geometry" />
        </mxCell>
        <mxCell id="WUI7d0x4xuRXz8EVybFa-230" value="&lt;font style=&quot;font-size: 55px&quot; color=&quot;#cc6600&quot;&gt;·&lt;/font&gt;" style="text;html=1;strokeColor=default;fillColor=none;align=center;verticalAlign=middle;whiteSpace=wrap;rounded=0;sketch=0;fontFamily=Times New Roman;fontSize=16;" vertex="1" parent="1">
          <mxGeometry x="490" y="607" width="20" height="20" as="geometry" />
        </mxCell>
        <mxCell id="WUI7d0x4xuRXz8EVybFa-231" value="0" style="text;html=1;strokeColor=default;fillColor=none;align=center;verticalAlign=middle;whiteSpace=wrap;rounded=0;sketch=0;fontFamily=Times New Roman;fontSize=16;" vertex="1" parent="1">
          <mxGeometry x="470" y="647" width="20" height="20" as="geometry" />
        </mxCell>
        <mxCell id="WUI7d0x4xuRXz8EVybFa-232" value="&lt;font style=&quot;font-size: 55px&quot; color=&quot;#cc6600&quot;&gt;·&lt;/font&gt;" style="text;html=1;strokeColor=default;fillColor=none;align=center;verticalAlign=middle;whiteSpace=wrap;rounded=0;sketch=0;fontFamily=Times New Roman;fontSize=16;" vertex="1" parent="1">
          <mxGeometry x="470" y="627" width="20" height="20" as="geometry" />
        </mxCell>
        <mxCell id="WUI7d0x4xuRXz8EVybFa-233" value="0" style="text;html=1;strokeColor=default;fillColor=none;align=center;verticalAlign=middle;whiteSpace=wrap;rounded=0;sketch=0;fontFamily=Times New Roman;fontSize=16;" vertex="1" parent="1">
          <mxGeometry x="490" y="627" width="20" height="20" as="geometry" />
        </mxCell>
        <mxCell id="WUI7d0x4xuRXz8EVybFa-234" value="&lt;font style=&quot;font-size: 55px&quot; color=&quot;#cc6600&quot;&gt;·&lt;/font&gt;" style="text;html=1;strokeColor=default;fillColor=none;align=center;verticalAlign=middle;whiteSpace=wrap;rounded=0;sketch=0;fontFamily=Times New Roman;fontSize=16;" vertex="1" parent="1">
          <mxGeometry x="490" y="647" width="20" height="20" as="geometry" />
        </mxCell>
        <mxCell id="WUI7d0x4xuRXz8EVybFa-235" value="0" style="text;html=1;strokeColor=default;fillColor=none;align=center;verticalAlign=middle;whiteSpace=wrap;rounded=0;sketch=0;fontFamily=Times New Roman;fontSize=16;" vertex="1" parent="1">
          <mxGeometry x="510" y="687" width="20" height="20" as="geometry" />
        </mxCell>
        <mxCell id="WUI7d0x4xuRXz8EVybFa-236" value="&lt;font style=&quot;font-size: 55px&quot; color=&quot;#cc6600&quot;&gt;·&lt;/font&gt;" style="text;html=1;strokeColor=default;fillColor=none;align=center;verticalAlign=middle;whiteSpace=wrap;rounded=0;sketch=0;fontFamily=Times New Roman;fontSize=16;" vertex="1" parent="1">
          <mxGeometry x="510" y="667" width="20" height="20" as="geometry" />
        </mxCell>
        <mxCell id="WUI7d0x4xuRXz8EVybFa-237" value="0" style="text;html=1;strokeColor=default;fillColor=none;align=center;verticalAlign=middle;whiteSpace=wrap;rounded=0;sketch=0;fontFamily=Times New Roman;fontSize=16;" vertex="1" parent="1">
          <mxGeometry x="530" y="667" width="20" height="20" as="geometry" />
        </mxCell>
        <mxCell id="WUI7d0x4xuRXz8EVybFa-238" value="0" style="text;html=1;strokeColor=default;fillColor=none;align=center;verticalAlign=middle;whiteSpace=wrap;rounded=0;sketch=0;fontFamily=Times New Roman;fontSize=16;" vertex="1" parent="1">
          <mxGeometry x="550" y="687" width="20" height="20" as="geometry" />
        </mxCell>
        <mxCell id="WUI7d0x4xuRXz8EVybFa-239" value="&lt;font style=&quot;font-size: 55px&quot; color=&quot;#cc6600&quot;&gt;·&lt;/font&gt;" style="text;html=1;strokeColor=default;fillColor=none;align=center;verticalAlign=middle;whiteSpace=wrap;rounded=0;sketch=0;fontFamily=Times New Roman;fontSize=16;" vertex="1" parent="1">
          <mxGeometry x="550" y="667" width="20" height="20" as="geometry" />
        </mxCell>
        <mxCell id="WUI7d0x4xuRXz8EVybFa-240" value="&lt;font style=&quot;font-size: 55px&quot; color=&quot;#cc6600&quot;&gt;·&lt;/font&gt;" style="text;html=1;strokeColor=default;fillColor=none;align=center;verticalAlign=middle;whiteSpace=wrap;rounded=0;sketch=0;fontFamily=Times New Roman;fontSize=16;" vertex="1" parent="1">
          <mxGeometry x="530" y="687" width="20" height="20" as="geometry" />
        </mxCell>
        <mxCell id="WUI7d0x4xuRXz8EVybFa-241" value="0" style="text;html=1;strokeColor=default;fillColor=none;align=center;verticalAlign=middle;whiteSpace=wrap;rounded=0;sketch=0;fontFamily=Times New Roman;fontSize=16;" vertex="1" parent="1">
          <mxGeometry x="570" y="667" width="20" height="20" as="geometry" />
        </mxCell>
        <mxCell id="WUI7d0x4xuRXz8EVybFa-242" value="0" style="text;html=1;strokeColor=default;fillColor=none;align=center;verticalAlign=middle;whiteSpace=wrap;rounded=0;sketch=0;fontFamily=Times New Roman;fontSize=16;" vertex="1" parent="1">
          <mxGeometry x="590" y="687" width="20" height="20" as="geometry" />
        </mxCell>
        <mxCell id="WUI7d0x4xuRXz8EVybFa-243" value="&lt;font style=&quot;font-size: 55px&quot; color=&quot;#cc6600&quot;&gt;·&lt;/font&gt;" style="text;html=1;strokeColor=default;fillColor=none;align=center;verticalAlign=middle;whiteSpace=wrap;rounded=0;sketch=0;fontFamily=Times New Roman;fontSize=16;" vertex="1" parent="1">
          <mxGeometry x="590" y="667" width="20" height="20" as="geometry" />
        </mxCell>
        <mxCell id="WUI7d0x4xuRXz8EVybFa-244" value="&lt;font style=&quot;font-size: 55px&quot; color=&quot;#cc6600&quot;&gt;·&lt;/font&gt;" style="text;html=1;strokeColor=default;fillColor=none;align=center;verticalAlign=middle;whiteSpace=wrap;rounded=0;sketch=0;fontFamily=Times New Roman;fontSize=16;" vertex="1" parent="1">
          <mxGeometry x="570" y="687" width="20" height="20" as="geometry" />
        </mxCell>
        <mxCell id="WUI7d0x4xuRXz8EVybFa-245" value="0" style="text;html=1;strokeColor=default;fillColor=none;align=center;verticalAlign=middle;whiteSpace=wrap;rounded=0;sketch=0;fontFamily=Times New Roman;fontSize=16;" vertex="1" parent="1">
          <mxGeometry x="610" y="667" width="20" height="20" as="geometry" />
        </mxCell>
        <mxCell id="WUI7d0x4xuRXz8EVybFa-246" value="0" style="text;html=1;strokeColor=default;fillColor=none;align=center;verticalAlign=middle;whiteSpace=wrap;rounded=0;sketch=0;fontFamily=Times New Roman;fontSize=16;" vertex="1" parent="1">
          <mxGeometry x="630" y="687" width="20" height="20" as="geometry" />
        </mxCell>
        <mxCell id="WUI7d0x4xuRXz8EVybFa-247" value="&lt;font style=&quot;font-size: 55px&quot; color=&quot;#cc6600&quot;&gt;·&lt;/font&gt;" style="text;html=1;strokeColor=default;fillColor=none;align=center;verticalAlign=middle;whiteSpace=wrap;rounded=0;sketch=0;fontFamily=Times New Roman;fontSize=16;" vertex="1" parent="1">
          <mxGeometry x="630" y="667" width="20" height="20" as="geometry" />
        </mxCell>
        <mxCell id="WUI7d0x4xuRXz8EVybFa-248" value="&lt;font style=&quot;font-size: 55px&quot; color=&quot;#cc6600&quot;&gt;·&lt;/font&gt;" style="text;html=1;strokeColor=default;fillColor=none;align=center;verticalAlign=middle;whiteSpace=wrap;rounded=0;sketch=0;fontFamily=Times New Roman;fontSize=16;" vertex="1" parent="1">
          <mxGeometry x="610" y="687" width="20" height="20" as="geometry" />
        </mxCell>
        <mxCell id="WUI7d0x4xuRXz8EVybFa-249" value="0" style="text;html=1;strokeColor=default;fillColor=none;align=center;verticalAlign=middle;whiteSpace=wrap;rounded=0;sketch=0;fontFamily=Times New Roman;fontSize=16;" vertex="1" parent="1">
          <mxGeometry x="470" y="687" width="20" height="20" as="geometry" />
        </mxCell>
        <mxCell id="WUI7d0x4xuRXz8EVybFa-250" value="&lt;font style=&quot;font-size: 55px&quot; color=&quot;#cc6600&quot;&gt;·&lt;/font&gt;" style="text;html=1;strokeColor=default;fillColor=none;align=center;verticalAlign=middle;whiteSpace=wrap;rounded=0;sketch=0;fontFamily=Times New Roman;fontSize=16;" vertex="1" parent="1">
          <mxGeometry x="470" y="667" width="20" height="20" as="geometry" />
        </mxCell>
        <mxCell id="WUI7d0x4xuRXz8EVybFa-251" value="0" style="text;html=1;strokeColor=default;fillColor=none;align=center;verticalAlign=middle;whiteSpace=wrap;rounded=0;sketch=0;fontFamily=Times New Roman;fontSize=16;" vertex="1" parent="1">
          <mxGeometry x="490" y="667" width="20" height="20" as="geometry" />
        </mxCell>
        <mxCell id="WUI7d0x4xuRXz8EVybFa-252" value="&lt;font style=&quot;font-size: 55px&quot; color=&quot;#cc6600&quot;&gt;·&lt;/font&gt;" style="text;html=1;strokeColor=default;fillColor=none;align=center;verticalAlign=middle;whiteSpace=wrap;rounded=0;sketch=0;fontFamily=Times New Roman;fontSize=16;" vertex="1" parent="1">
          <mxGeometry x="490" y="687" width="20" height="20" as="geometry" />
        </mxCell>
        <mxCell id="WUI7d0x4xuRXz8EVybFa-253" value="0" style="text;html=1;strokeColor=default;fillColor=none;align=center;verticalAlign=middle;whiteSpace=wrap;rounded=0;sketch=0;fontFamily=Times New Roman;fontSize=16;" vertex="1" parent="1">
          <mxGeometry x="650" y="507" width="20" height="20" as="geometry" />
        </mxCell>
        <mxCell id="WUI7d0x4xuRXz8EVybFa-254" value="0" style="text;html=1;strokeColor=default;fillColor=none;align=center;verticalAlign=middle;whiteSpace=wrap;rounded=0;sketch=0;fontFamily=Times New Roman;fontSize=16;" vertex="1" parent="1">
          <mxGeometry x="650" y="547" width="20" height="20" as="geometry" />
        </mxCell>
        <mxCell id="WUI7d0x4xuRXz8EVybFa-255" value="&lt;font style=&quot;font-size: 55px&quot; color=&quot;#cc6600&quot;&gt;·&lt;/font&gt;" style="text;html=1;strokeColor=default;fillColor=none;align=center;verticalAlign=middle;whiteSpace=wrap;rounded=0;sketch=0;fontFamily=Times New Roman;fontSize=16;" vertex="1" parent="1">
          <mxGeometry x="650" y="527" width="20" height="20" as="geometry" />
        </mxCell>
        <mxCell id="WUI7d0x4xuRXz8EVybFa-256" value="0" style="text;html=1;strokeColor=default;fillColor=none;align=center;verticalAlign=middle;whiteSpace=wrap;rounded=0;sketch=0;fontFamily=Times New Roman;fontSize=16;" vertex="1" parent="1">
          <mxGeometry x="650" y="587" width="20" height="20" as="geometry" />
        </mxCell>
        <mxCell id="WUI7d0x4xuRXz8EVybFa-257" value="&lt;font style=&quot;font-size: 55px&quot; color=&quot;#cc6600&quot;&gt;·&lt;/font&gt;" style="text;html=1;strokeColor=default;fillColor=none;align=center;verticalAlign=middle;whiteSpace=wrap;rounded=0;sketch=0;fontFamily=Times New Roman;fontSize=16;" vertex="1" parent="1">
          <mxGeometry x="650" y="567" width="20" height="20" as="geometry" />
        </mxCell>
        <mxCell id="WUI7d0x4xuRXz8EVybFa-258" value="0" style="text;html=1;strokeColor=default;fillColor=none;align=center;verticalAlign=middle;whiteSpace=wrap;rounded=0;sketch=0;fontFamily=Times New Roman;fontSize=16;" vertex="1" parent="1">
          <mxGeometry x="650" y="627" width="20" height="20" as="geometry" />
        </mxCell>
        <mxCell id="WUI7d0x4xuRXz8EVybFa-259" value="&lt;font style=&quot;font-size: 55px&quot; color=&quot;#cc6600&quot;&gt;·&lt;/font&gt;" style="text;html=1;strokeColor=default;fillColor=none;align=center;verticalAlign=middle;whiteSpace=wrap;rounded=0;sketch=0;fontFamily=Times New Roman;fontSize=16;" vertex="1" parent="1">
          <mxGeometry x="650" y="607" width="20" height="20" as="geometry" />
        </mxCell>
        <mxCell id="WUI7d0x4xuRXz8EVybFa-260" value="0" style="text;html=1;strokeColor=default;fillColor=none;align=center;verticalAlign=middle;whiteSpace=wrap;rounded=0;sketch=0;fontFamily=Times New Roman;fontSize=16;" vertex="1" parent="1">
          <mxGeometry x="650" y="667" width="20" height="20" as="geometry" />
        </mxCell>
        <mxCell id="WUI7d0x4xuRXz8EVybFa-261" value="&lt;font style=&quot;font-size: 55px&quot; color=&quot;#cc6600&quot;&gt;·&lt;/font&gt;" style="text;html=1;strokeColor=default;fillColor=none;align=center;verticalAlign=middle;whiteSpace=wrap;rounded=0;sketch=0;fontFamily=Times New Roman;fontSize=16;" vertex="1" parent="1">
          <mxGeometry x="650" y="647" width="20" height="20" as="geometry" />
        </mxCell>
        <mxCell id="WUI7d0x4xuRXz8EVybFa-262" value="&lt;font style=&quot;font-size: 55px&quot; color=&quot;#cc6600&quot;&gt;·&lt;/font&gt;" style="text;html=1;strokeColor=default;fillColor=none;align=center;verticalAlign=middle;whiteSpace=wrap;rounded=0;sketch=0;fontFamily=Times New Roman;fontSize=16;" vertex="1" parent="1">
          <mxGeometry x="650" y="687" width="20" height="20" as="geometry" />
        </mxCell>
        <mxCell id="WUI7d0x4xuRXz8EVybFa-263" value="0" style="text;html=1;strokeColor=default;fillColor=none;align=center;verticalAlign=middle;whiteSpace=wrap;rounded=0;sketch=0;fontFamily=Times New Roman;fontSize=16;fontColor=#000000;" vertex="1" parent="1">
          <mxGeometry x="360" y="260" width="20" height="20" as="geometry" />
        </mxCell>
        <mxCell id="WUI7d0x4xuRXz8EVybFa-264" value="&lt;font style=&quot;font-size: 20px&quot;&gt;×&lt;/font&gt;" style="text;html=1;strokeColor=default;fillColor=none;align=center;verticalAlign=middle;whiteSpace=wrap;rounded=0;sketch=0;fontFamily=Times New Roman;fontSize=16;fontColor=#000000;" vertex="1" parent="1">
          <mxGeometry x="360" y="240" width="20" height="20" as="geometry" />
        </mxCell>
        <mxCell id="WUI7d0x4xuRXz8EVybFa-265" value="0" style="text;html=1;strokeColor=default;fillColor=none;align=center;verticalAlign=middle;whiteSpace=wrap;rounded=0;sketch=0;fontFamily=Times New Roman;fontSize=16;fontColor=#000000;" vertex="1" parent="1">
          <mxGeometry x="340" y="240" width="20" height="20" as="geometry" />
        </mxCell>
        <mxCell id="WUI7d0x4xuRXz8EVybFa-267" value="&lt;font style=&quot;font-size: 20px&quot;&gt;×&lt;/font&gt;" style="text;html=1;strokeColor=default;fillColor=none;align=center;verticalAlign=middle;whiteSpace=wrap;rounded=0;sketch=0;fontFamily=Times New Roman;fontSize=16;fontColor=#000000;" vertex="1" parent="1">
          <mxGeometry x="340" y="260" width="20" height="20" as="geometry" />
        </mxCell>
        <mxCell id="WUI7d0x4xuRXz8EVybFa-268" value="0" style="text;html=1;strokeColor=default;fillColor=none;align=center;verticalAlign=middle;whiteSpace=wrap;rounded=0;sketch=0;fontFamily=Times New Roman;fontSize=16;fontColor=#000000;" vertex="1" parent="1">
          <mxGeometry x="240" y="260" width="20" height="20" as="geometry" />
        </mxCell>
        <mxCell id="WUI7d0x4xuRXz8EVybFa-269" value="&lt;font style=&quot;font-size: 20px&quot;&gt;×&lt;/font&gt;" style="text;html=1;strokeColor=default;fillColor=none;align=center;verticalAlign=middle;whiteSpace=wrap;rounded=0;sketch=0;fontFamily=Times New Roman;fontSize=16;fontColor=#000000;" vertex="1" parent="1">
          <mxGeometry x="240" y="240" width="20" height="20" as="geometry" />
        </mxCell>
        <mxCell id="WUI7d0x4xuRXz8EVybFa-270" value="0" style="text;html=1;strokeColor=default;fillColor=none;align=center;verticalAlign=middle;whiteSpace=wrap;rounded=0;sketch=0;fontFamily=Times New Roman;fontSize=16;fontColor=#000000;" vertex="1" parent="1">
          <mxGeometry x="220" y="240" width="20" height="20" as="geometry" />
        </mxCell>
        <mxCell id="WUI7d0x4xuRXz8EVybFa-271" value="&lt;font style=&quot;font-size: 20px&quot;&gt;×&lt;/font&gt;" style="text;html=1;strokeColor=default;fillColor=none;align=center;verticalAlign=middle;whiteSpace=wrap;rounded=0;sketch=0;fontFamily=Times New Roman;fontSize=16;fontColor=#000000;" vertex="1" parent="1">
          <mxGeometry x="220" y="260" width="20" height="20" as="geometry" />
        </mxCell>
        <mxCell id="WUI7d0x4xuRXz8EVybFa-272" value="0" style="text;html=1;strokeColor=default;fillColor=none;align=center;verticalAlign=middle;whiteSpace=wrap;rounded=0;sketch=0;fontFamily=Times New Roman;fontSize=16;fontColor=#000000;" vertex="1" parent="1">
          <mxGeometry x="360" y="300" width="20" height="20" as="geometry" />
        </mxCell>
        <mxCell id="WUI7d0x4xuRXz8EVybFa-273" value="&lt;font style=&quot;font-size: 20px&quot;&gt;×&lt;/font&gt;" style="text;html=1;strokeColor=default;fillColor=none;align=center;verticalAlign=middle;whiteSpace=wrap;rounded=0;sketch=0;fontFamily=Times New Roman;fontSize=16;fontColor=#000000;" vertex="1" parent="1">
          <mxGeometry x="360" y="280" width="20" height="20" as="geometry" />
        </mxCell>
        <mxCell id="WUI7d0x4xuRXz8EVybFa-274" value="0" style="text;html=1;strokeColor=default;fillColor=none;align=center;verticalAlign=middle;whiteSpace=wrap;rounded=0;sketch=0;fontFamily=Times New Roman;fontSize=16;fontColor=#000000;" vertex="1" parent="1">
          <mxGeometry x="340" y="280" width="20" height="20" as="geometry" />
        </mxCell>
        <mxCell id="WUI7d0x4xuRXz8EVybFa-275" value="&lt;font style=&quot;font-size: 20px&quot;&gt;×&lt;/font&gt;" style="text;html=1;strokeColor=default;fillColor=none;align=center;verticalAlign=middle;whiteSpace=wrap;rounded=0;sketch=0;fontFamily=Times New Roman;fontSize=16;fontColor=#000000;" vertex="1" parent="1">
          <mxGeometry x="340" y="300" width="20" height="20" as="geometry" />
        </mxCell>
        <mxCell id="WUI7d0x4xuRXz8EVybFa-276" value="0" style="text;html=1;strokeColor=default;fillColor=none;align=center;verticalAlign=middle;whiteSpace=wrap;rounded=0;sketch=0;fontFamily=Times New Roman;fontSize=16;fontColor=#000000;" vertex="1" parent="1">
          <mxGeometry x="240" y="300" width="20" height="20" as="geometry" />
        </mxCell>
        <mxCell id="WUI7d0x4xuRXz8EVybFa-277" value="&lt;font style=&quot;font-size: 20px&quot;&gt;×&lt;/font&gt;" style="text;html=1;strokeColor=default;fillColor=none;align=center;verticalAlign=middle;whiteSpace=wrap;rounded=0;sketch=0;fontFamily=Times New Roman;fontSize=16;fontColor=#000000;" vertex="1" parent="1">
          <mxGeometry x="240" y="280" width="20" height="20" as="geometry" />
        </mxCell>
        <mxCell id="WUI7d0x4xuRXz8EVybFa-278" value="0" style="text;html=1;strokeColor=default;fillColor=none;align=center;verticalAlign=middle;whiteSpace=wrap;rounded=0;sketch=0;fontFamily=Times New Roman;fontSize=16;fontColor=#000000;" vertex="1" parent="1">
          <mxGeometry x="220" y="280" width="20" height="20" as="geometry" />
        </mxCell>
        <mxCell id="WUI7d0x4xuRXz8EVybFa-279" value="&lt;font style=&quot;font-size: 20px&quot;&gt;×&lt;/font&gt;" style="text;html=1;strokeColor=default;fillColor=none;align=center;verticalAlign=middle;whiteSpace=wrap;rounded=0;sketch=0;fontFamily=Times New Roman;fontSize=16;fontColor=#000000;" vertex="1" parent="1">
          <mxGeometry x="220" y="300" width="20" height="20" as="geometry" />
        </mxCell>
        <mxCell id="WUI7d0x4xuRXz8EVybFa-280" value="0" style="text;html=1;strokeColor=default;fillColor=none;align=center;verticalAlign=middle;whiteSpace=wrap;rounded=0;sketch=0;fontFamily=Times New Roman;fontSize=16;fontColor=#000000;" vertex="1" parent="1">
          <mxGeometry x="280" y="260" width="20" height="20" as="geometry" />
        </mxCell>
        <mxCell id="WUI7d0x4xuRXz8EVybFa-281" value="&lt;font style=&quot;font-size: 20px&quot;&gt;×&lt;/font&gt;" style="text;html=1;strokeColor=default;fillColor=none;align=center;verticalAlign=middle;whiteSpace=wrap;rounded=0;sketch=0;fontFamily=Times New Roman;fontSize=16;fontColor=#000000;" vertex="1" parent="1">
          <mxGeometry x="280" y="240" width="20" height="20" as="geometry" />
        </mxCell>
        <mxCell id="WUI7d0x4xuRXz8EVybFa-282" value="0" style="text;html=1;strokeColor=default;fillColor=none;align=center;verticalAlign=middle;whiteSpace=wrap;rounded=0;sketch=0;fontFamily=Times New Roman;fontSize=16;fontColor=#000000;" vertex="1" parent="1">
          <mxGeometry x="260" y="240" width="20" height="20" as="geometry" />
        </mxCell>
        <mxCell id="WUI7d0x4xuRXz8EVybFa-283" value="&lt;font style=&quot;font-size: 20px&quot;&gt;×&lt;/font&gt;" style="text;html=1;strokeColor=default;fillColor=none;align=center;verticalAlign=middle;whiteSpace=wrap;rounded=0;sketch=0;fontFamily=Times New Roman;fontSize=16;fontColor=#000000;" vertex="1" parent="1">
          <mxGeometry x="260" y="260" width="20" height="20" as="geometry" />
        </mxCell>
        <mxCell id="WUI7d0x4xuRXz8EVybFa-284" value="0" style="text;html=1;strokeColor=default;fillColor=none;align=center;verticalAlign=middle;whiteSpace=wrap;rounded=0;sketch=0;fontFamily=Times New Roman;fontSize=16;fontColor=#000000;" vertex="1" parent="1">
          <mxGeometry x="320" y="260" width="20" height="20" as="geometry" />
        </mxCell>
        <mxCell id="WUI7d0x4xuRXz8EVybFa-285" value="&lt;font style=&quot;font-size: 20px&quot;&gt;×&lt;/font&gt;" style="text;html=1;strokeColor=default;fillColor=none;align=center;verticalAlign=middle;whiteSpace=wrap;rounded=0;sketch=0;fontFamily=Times New Roman;fontSize=16;fontColor=#000000;" vertex="1" parent="1">
          <mxGeometry x="320" y="240" width="20" height="20" as="geometry" />
        </mxCell>
        <mxCell id="WUI7d0x4xuRXz8EVybFa-286" value="0" style="text;html=1;strokeColor=default;fillColor=none;align=center;verticalAlign=middle;whiteSpace=wrap;rounded=0;sketch=0;fontFamily=Times New Roman;fontSize=16;fontColor=#000000;" vertex="1" parent="1">
          <mxGeometry x="300" y="240" width="20" height="20" as="geometry" />
        </mxCell>
        <mxCell id="WUI7d0x4xuRXz8EVybFa-287" value="&lt;font style=&quot;font-size: 20px&quot;&gt;×&lt;/font&gt;" style="text;html=1;strokeColor=default;fillColor=none;align=center;verticalAlign=middle;whiteSpace=wrap;rounded=0;sketch=0;fontFamily=Times New Roman;fontSize=16;fontColor=#000000;" vertex="1" parent="1">
          <mxGeometry x="300" y="260" width="20" height="20" as="geometry" />
        </mxCell>
        <mxCell id="WUI7d0x4xuRXz8EVybFa-288" value="0" style="text;html=1;strokeColor=default;fillColor=none;align=center;verticalAlign=middle;whiteSpace=wrap;rounded=0;sketch=0;fontFamily=Times New Roman;fontSize=16;fontColor=#000000;" vertex="1" parent="1">
          <mxGeometry x="280" y="300" width="20" height="20" as="geometry" />
        </mxCell>
        <mxCell id="WUI7d0x4xuRXz8EVybFa-289" value="&lt;font style=&quot;font-size: 20px&quot;&gt;×&lt;/font&gt;" style="text;html=1;strokeColor=default;fillColor=none;align=center;verticalAlign=middle;whiteSpace=wrap;rounded=0;sketch=0;fontFamily=Times New Roman;fontSize=16;fontColor=#000000;" vertex="1" parent="1">
          <mxGeometry x="280" y="280" width="20" height="20" as="geometry" />
        </mxCell>
        <mxCell id="WUI7d0x4xuRXz8EVybFa-290" value="0" style="text;html=1;strokeColor=default;fillColor=none;align=center;verticalAlign=middle;whiteSpace=wrap;rounded=0;sketch=0;fontFamily=Times New Roman;fontSize=16;fontColor=#000000;" vertex="1" parent="1">
          <mxGeometry x="260" y="280" width="20" height="20" as="geometry" />
        </mxCell>
        <mxCell id="WUI7d0x4xuRXz8EVybFa-291" value="&lt;font style=&quot;font-size: 20px&quot;&gt;×&lt;/font&gt;" style="text;html=1;strokeColor=default;fillColor=none;align=center;verticalAlign=middle;whiteSpace=wrap;rounded=0;sketch=0;fontFamily=Times New Roman;fontSize=16;fontColor=#000000;" vertex="1" parent="1">
          <mxGeometry x="260" y="300" width="20" height="20" as="geometry" />
        </mxCell>
        <mxCell id="WUI7d0x4xuRXz8EVybFa-292" value="0" style="text;html=1;strokeColor=default;fillColor=none;align=center;verticalAlign=middle;whiteSpace=wrap;rounded=0;sketch=0;fontFamily=Times New Roman;fontSize=16;fontColor=#000000;" vertex="1" parent="1">
          <mxGeometry x="320" y="300" width="20" height="20" as="geometry" />
        </mxCell>
        <mxCell id="WUI7d0x4xuRXz8EVybFa-293" value="&lt;font style=&quot;font-size: 20px&quot;&gt;×&lt;/font&gt;" style="text;html=1;strokeColor=default;fillColor=none;align=center;verticalAlign=middle;whiteSpace=wrap;rounded=0;sketch=0;fontFamily=Times New Roman;fontSize=16;fontColor=#000000;" vertex="1" parent="1">
          <mxGeometry x="320" y="280" width="20" height="20" as="geometry" />
        </mxCell>
        <mxCell id="WUI7d0x4xuRXz8EVybFa-294" value="0" style="text;html=1;strokeColor=default;fillColor=none;align=center;verticalAlign=middle;whiteSpace=wrap;rounded=0;sketch=0;fontFamily=Times New Roman;fontSize=16;fontColor=#000000;" vertex="1" parent="1">
          <mxGeometry x="300" y="280" width="20" height="20" as="geometry" />
        </mxCell>
        <mxCell id="WUI7d0x4xuRXz8EVybFa-295" value="&lt;font style=&quot;font-size: 20px&quot;&gt;×&lt;/font&gt;" style="text;html=1;strokeColor=default;fillColor=none;align=center;verticalAlign=middle;whiteSpace=wrap;rounded=0;sketch=0;fontFamily=Times New Roman;fontSize=16;fontColor=#000000;" vertex="1" parent="1">
          <mxGeometry x="300" y="300" width="20" height="20" as="geometry" />
        </mxCell>
        <mxCell id="WUI7d0x4xuRXz8EVybFa-296" value="0" style="text;html=1;strokeColor=default;fillColor=none;align=center;verticalAlign=middle;whiteSpace=wrap;rounded=0;sketch=0;fontFamily=Times New Roman;fontSize=16;fontColor=#000000;" vertex="1" parent="1">
          <mxGeometry x="360" y="340" width="20" height="20" as="geometry" />
        </mxCell>
        <mxCell id="WUI7d0x4xuRXz8EVybFa-297" value="&lt;font style=&quot;font-size: 20px&quot;&gt;×&lt;/font&gt;" style="text;html=1;strokeColor=default;fillColor=none;align=center;verticalAlign=middle;whiteSpace=wrap;rounded=0;sketch=0;fontFamily=Times New Roman;fontSize=16;fontColor=#000000;" vertex="1" parent="1">
          <mxGeometry x="360" y="320" width="20" height="20" as="geometry" />
        </mxCell>
        <mxCell id="WUI7d0x4xuRXz8EVybFa-298" value="0" style="text;html=1;strokeColor=default;fillColor=none;align=center;verticalAlign=middle;whiteSpace=wrap;rounded=0;sketch=0;fontFamily=Times New Roman;fontSize=16;fontColor=#000000;" vertex="1" parent="1">
          <mxGeometry x="340" y="320" width="20" height="20" as="geometry" />
        </mxCell>
        <mxCell id="WUI7d0x4xuRXz8EVybFa-299" value="&lt;font style=&quot;font-size: 20px&quot;&gt;×&lt;/font&gt;" style="text;html=1;strokeColor=default;fillColor=none;align=center;verticalAlign=middle;whiteSpace=wrap;rounded=0;sketch=0;fontFamily=Times New Roman;fontSize=16;fontColor=#000000;" vertex="1" parent="1">
          <mxGeometry x="340" y="340" width="20" height="20" as="geometry" />
        </mxCell>
        <mxCell id="WUI7d0x4xuRXz8EVybFa-300" value="0" style="text;html=1;strokeColor=default;fillColor=none;align=center;verticalAlign=middle;whiteSpace=wrap;rounded=0;sketch=0;fontFamily=Times New Roman;fontSize=16;fontColor=#000000;" vertex="1" parent="1">
          <mxGeometry x="240" y="340" width="20" height="20" as="geometry" />
        </mxCell>
        <mxCell id="WUI7d0x4xuRXz8EVybFa-301" value="&lt;font style=&quot;font-size: 20px&quot;&gt;×&lt;/font&gt;" style="text;html=1;strokeColor=default;fillColor=none;align=center;verticalAlign=middle;whiteSpace=wrap;rounded=0;sketch=0;fontFamily=Times New Roman;fontSize=16;fontColor=#000000;" vertex="1" parent="1">
          <mxGeometry x="240" y="320" width="20" height="20" as="geometry" />
        </mxCell>
        <mxCell id="WUI7d0x4xuRXz8EVybFa-302" value="0" style="text;html=1;strokeColor=default;fillColor=none;align=center;verticalAlign=middle;whiteSpace=wrap;rounded=0;sketch=0;fontFamily=Times New Roman;fontSize=16;fontColor=#000000;" vertex="1" parent="1">
          <mxGeometry x="220" y="320" width="20" height="20" as="geometry" />
        </mxCell>
        <mxCell id="WUI7d0x4xuRXz8EVybFa-303" value="&lt;font style=&quot;font-size: 20px&quot;&gt;×&lt;/font&gt;" style="text;html=1;strokeColor=default;fillColor=none;align=center;verticalAlign=middle;whiteSpace=wrap;rounded=0;sketch=0;fontFamily=Times New Roman;fontSize=16;fontColor=#000000;" vertex="1" parent="1">
          <mxGeometry x="220" y="340" width="20" height="20" as="geometry" />
        </mxCell>
        <mxCell id="WUI7d0x4xuRXz8EVybFa-304" value="0" style="text;html=1;strokeColor=default;fillColor=none;align=center;verticalAlign=middle;whiteSpace=wrap;rounded=0;sketch=0;fontFamily=Times New Roman;fontSize=16;fontColor=#000000;" vertex="1" parent="1">
          <mxGeometry x="360" y="380" width="20" height="20" as="geometry" />
        </mxCell>
        <mxCell id="WUI7d0x4xuRXz8EVybFa-305" value="&lt;font style=&quot;font-size: 20px&quot;&gt;×&lt;/font&gt;" style="text;html=1;strokeColor=default;fillColor=none;align=center;verticalAlign=middle;whiteSpace=wrap;rounded=0;sketch=0;fontFamily=Times New Roman;fontSize=16;fontColor=#000000;" vertex="1" parent="1">
          <mxGeometry x="360" y="360" width="20" height="20" as="geometry" />
        </mxCell>
        <mxCell id="WUI7d0x4xuRXz8EVybFa-306" value="0" style="text;html=1;strokeColor=default;fillColor=none;align=center;verticalAlign=middle;whiteSpace=wrap;rounded=0;sketch=0;fontFamily=Times New Roman;fontSize=16;fontColor=#000000;" vertex="1" parent="1">
          <mxGeometry x="340" y="360" width="20" height="20" as="geometry" />
        </mxCell>
        <mxCell id="WUI7d0x4xuRXz8EVybFa-307" value="&lt;font style=&quot;font-size: 20px&quot;&gt;×&lt;/font&gt;" style="text;html=1;strokeColor=default;fillColor=none;align=center;verticalAlign=middle;whiteSpace=wrap;rounded=0;sketch=0;fontFamily=Times New Roman;fontSize=16;fontColor=#000000;" vertex="1" parent="1">
          <mxGeometry x="340" y="380" width="20" height="20" as="geometry" />
        </mxCell>
        <mxCell id="WUI7d0x4xuRXz8EVybFa-308" value="0" style="text;html=1;strokeColor=default;fillColor=none;align=center;verticalAlign=middle;whiteSpace=wrap;rounded=0;sketch=0;fontFamily=Times New Roman;fontSize=16;fontColor=#000000;" vertex="1" parent="1">
          <mxGeometry x="240" y="380" width="20" height="20" as="geometry" />
        </mxCell>
        <mxCell id="WUI7d0x4xuRXz8EVybFa-309" value="&lt;font style=&quot;font-size: 20px&quot;&gt;×&lt;/font&gt;" style="text;html=1;strokeColor=default;fillColor=none;align=center;verticalAlign=middle;whiteSpace=wrap;rounded=0;sketch=0;fontFamily=Times New Roman;fontSize=16;fontColor=#000000;" vertex="1" parent="1">
          <mxGeometry x="240" y="360" width="20" height="20" as="geometry" />
        </mxCell>
        <mxCell id="WUI7d0x4xuRXz8EVybFa-310" value="0" style="text;html=1;strokeColor=default;fillColor=none;align=center;verticalAlign=middle;whiteSpace=wrap;rounded=0;sketch=0;fontFamily=Times New Roman;fontSize=16;fontColor=#000000;" vertex="1" parent="1">
          <mxGeometry x="220" y="360" width="20" height="20" as="geometry" />
        </mxCell>
        <mxCell id="WUI7d0x4xuRXz8EVybFa-311" value="&lt;font style=&quot;font-size: 20px&quot;&gt;×&lt;/font&gt;" style="text;html=1;strokeColor=default;fillColor=none;align=center;verticalAlign=middle;whiteSpace=wrap;rounded=0;sketch=0;fontFamily=Times New Roman;fontSize=16;fontColor=#000000;" vertex="1" parent="1">
          <mxGeometry x="220" y="380" width="20" height="20" as="geometry" />
        </mxCell>
        <mxCell id="WUI7d0x4xuRXz8EVybFa-312" value="0" style="text;html=1;strokeColor=default;fillColor=none;align=center;verticalAlign=middle;whiteSpace=wrap;rounded=0;sketch=0;fontFamily=Times New Roman;fontSize=16;fontColor=#000000;" vertex="1" parent="1">
          <mxGeometry x="280" y="340" width="20" height="20" as="geometry" />
        </mxCell>
        <mxCell id="WUI7d0x4xuRXz8EVybFa-313" value="&lt;font style=&quot;font-size: 20px&quot;&gt;×&lt;/font&gt;" style="text;html=1;strokeColor=default;fillColor=none;align=center;verticalAlign=middle;whiteSpace=wrap;rounded=0;sketch=0;fontFamily=Times New Roman;fontSize=16;fontColor=#000000;" vertex="1" parent="1">
          <mxGeometry x="280" y="320" width="20" height="20" as="geometry" />
        </mxCell>
        <mxCell id="WUI7d0x4xuRXz8EVybFa-314" value="0" style="text;html=1;strokeColor=default;fillColor=none;align=center;verticalAlign=middle;whiteSpace=wrap;rounded=0;sketch=0;fontFamily=Times New Roman;fontSize=16;fontColor=#000000;" vertex="1" parent="1">
          <mxGeometry x="260" y="320" width="20" height="20" as="geometry" />
        </mxCell>
        <mxCell id="WUI7d0x4xuRXz8EVybFa-315" value="&lt;font style=&quot;font-size: 20px&quot;&gt;×&lt;/font&gt;" style="text;html=1;strokeColor=default;fillColor=none;align=center;verticalAlign=middle;whiteSpace=wrap;rounded=0;sketch=0;fontFamily=Times New Roman;fontSize=16;fontColor=#000000;" vertex="1" parent="1">
          <mxGeometry x="260" y="340" width="20" height="20" as="geometry" />
        </mxCell>
        <mxCell id="WUI7d0x4xuRXz8EVybFa-316" value="0" style="text;html=1;strokeColor=default;fillColor=none;align=center;verticalAlign=middle;whiteSpace=wrap;rounded=0;sketch=0;fontFamily=Times New Roman;fontSize=16;fontColor=#000000;" vertex="1" parent="1">
          <mxGeometry x="320" y="340" width="20" height="20" as="geometry" />
        </mxCell>
        <mxCell id="WUI7d0x4xuRXz8EVybFa-317" value="&lt;font style=&quot;font-size: 20px&quot;&gt;×&lt;/font&gt;" style="text;html=1;strokeColor=default;fillColor=none;align=center;verticalAlign=middle;whiteSpace=wrap;rounded=0;sketch=0;fontFamily=Times New Roman;fontSize=16;fontColor=#000000;" vertex="1" parent="1">
          <mxGeometry x="320" y="320" width="20" height="20" as="geometry" />
        </mxCell>
        <mxCell id="WUI7d0x4xuRXz8EVybFa-318" value="0" style="text;html=1;strokeColor=default;fillColor=none;align=center;verticalAlign=middle;whiteSpace=wrap;rounded=0;sketch=0;fontFamily=Times New Roman;fontSize=16;fontColor=#000000;" vertex="1" parent="1">
          <mxGeometry x="300" y="320" width="20" height="20" as="geometry" />
        </mxCell>
        <mxCell id="WUI7d0x4xuRXz8EVybFa-319" value="&lt;font style=&quot;font-size: 20px&quot;&gt;×&lt;/font&gt;" style="text;html=1;strokeColor=default;fillColor=none;align=center;verticalAlign=middle;whiteSpace=wrap;rounded=0;sketch=0;fontFamily=Times New Roman;fontSize=16;fontColor=#000000;" vertex="1" parent="1">
          <mxGeometry x="300" y="340" width="20" height="20" as="geometry" />
        </mxCell>
        <mxCell id="WUI7d0x4xuRXz8EVybFa-320" value="0" style="text;html=1;strokeColor=default;fillColor=none;align=center;verticalAlign=middle;whiteSpace=wrap;rounded=0;sketch=0;fontFamily=Times New Roman;fontSize=16;fontColor=#000000;" vertex="1" parent="1">
          <mxGeometry x="280" y="380" width="20" height="20" as="geometry" />
        </mxCell>
        <mxCell id="WUI7d0x4xuRXz8EVybFa-321" value="&lt;font style=&quot;font-size: 20px&quot;&gt;×&lt;/font&gt;" style="text;html=1;strokeColor=default;fillColor=none;align=center;verticalAlign=middle;whiteSpace=wrap;rounded=0;sketch=0;fontFamily=Times New Roman;fontSize=16;fontColor=#000000;" vertex="1" parent="1">
          <mxGeometry x="280" y="360" width="20" height="20" as="geometry" />
        </mxCell>
        <mxCell id="WUI7d0x4xuRXz8EVybFa-322" value="0" style="text;html=1;strokeColor=default;fillColor=none;align=center;verticalAlign=middle;whiteSpace=wrap;rounded=0;sketch=0;fontFamily=Times New Roman;fontSize=16;fontColor=#000000;" vertex="1" parent="1">
          <mxGeometry x="260" y="360" width="20" height="20" as="geometry" />
        </mxCell>
        <mxCell id="WUI7d0x4xuRXz8EVybFa-323" value="&lt;font style=&quot;font-size: 20px&quot;&gt;×&lt;/font&gt;" style="text;html=1;strokeColor=default;fillColor=none;align=center;verticalAlign=middle;whiteSpace=wrap;rounded=0;sketch=0;fontFamily=Times New Roman;fontSize=16;fontColor=#000000;" vertex="1" parent="1">
          <mxGeometry x="260" y="380" width="20" height="20" as="geometry" />
        </mxCell>
        <mxCell id="WUI7d0x4xuRXz8EVybFa-324" value="0" style="text;html=1;strokeColor=default;fillColor=none;align=center;verticalAlign=middle;whiteSpace=wrap;rounded=0;sketch=0;fontFamily=Times New Roman;fontSize=16;fontColor=#000000;" vertex="1" parent="1">
          <mxGeometry x="320" y="380" width="20" height="20" as="geometry" />
        </mxCell>
        <mxCell id="WUI7d0x4xuRXz8EVybFa-325" value="&lt;font style=&quot;font-size: 20px&quot;&gt;×&lt;/font&gt;" style="text;html=1;strokeColor=default;fillColor=none;align=center;verticalAlign=middle;whiteSpace=wrap;rounded=0;sketch=0;fontFamily=Times New Roman;fontSize=16;fontColor=#000000;" vertex="1" parent="1">
          <mxGeometry x="320" y="360" width="20" height="20" as="geometry" />
        </mxCell>
        <mxCell id="WUI7d0x4xuRXz8EVybFa-326" value="0" style="text;html=1;strokeColor=default;fillColor=none;align=center;verticalAlign=middle;whiteSpace=wrap;rounded=0;sketch=0;fontFamily=Times New Roman;fontSize=16;fontColor=#000000;" vertex="1" parent="1">
          <mxGeometry x="300" y="360" width="20" height="20" as="geometry" />
        </mxCell>
        <mxCell id="WUI7d0x4xuRXz8EVybFa-327" value="&lt;font style=&quot;font-size: 20px&quot;&gt;×&lt;/font&gt;" style="text;html=1;strokeColor=default;fillColor=none;align=center;verticalAlign=middle;whiteSpace=wrap;rounded=0;sketch=0;fontFamily=Times New Roman;fontSize=16;fontColor=#000000;" vertex="1" parent="1">
          <mxGeometry x="300" y="380" width="20" height="20" as="geometry" />
        </mxCell>
        <mxCell id="WUI7d0x4xuRXz8EVybFa-328" value="0" style="text;html=1;strokeColor=default;fillColor=none;align=center;verticalAlign=middle;whiteSpace=wrap;rounded=0;sketch=0;fontFamily=Times New Roman;fontSize=16;fontColor=#000000;" vertex="1" parent="1">
          <mxGeometry x="200" y="260" width="20" height="20" as="geometry" />
        </mxCell>
        <mxCell id="WUI7d0x4xuRXz8EVybFa-329" value="&lt;font style=&quot;font-size: 20px&quot;&gt;×&lt;/font&gt;" style="text;html=1;strokeColor=default;fillColor=none;align=center;verticalAlign=middle;whiteSpace=wrap;rounded=0;sketch=0;fontFamily=Times New Roman;fontSize=16;fontColor=#000000;" vertex="1" parent="1">
          <mxGeometry x="200" y="240" width="20" height="20" as="geometry" />
        </mxCell>
        <mxCell id="WUI7d0x4xuRXz8EVybFa-330" value="0" style="text;html=1;strokeColor=default;fillColor=none;align=center;verticalAlign=middle;whiteSpace=wrap;rounded=0;sketch=0;fontFamily=Times New Roman;fontSize=16;fontColor=#000000;" vertex="1" parent="1">
          <mxGeometry x="180" y="240" width="20" height="20" as="geometry" />
        </mxCell>
        <mxCell id="WUI7d0x4xuRXz8EVybFa-331" value="&lt;font style=&quot;font-size: 20px&quot;&gt;×&lt;/font&gt;" style="text;html=1;strokeColor=default;fillColor=none;align=center;verticalAlign=middle;whiteSpace=wrap;rounded=0;sketch=0;fontFamily=Times New Roman;fontSize=16;fontColor=#000000;" vertex="1" parent="1">
          <mxGeometry x="180" y="260" width="20" height="20" as="geometry" />
        </mxCell>
        <mxCell id="WUI7d0x4xuRXz8EVybFa-332" value="0" style="text;html=1;strokeColor=default;fillColor=none;align=center;verticalAlign=middle;whiteSpace=wrap;rounded=0;sketch=0;fontFamily=Times New Roman;fontSize=16;fontColor=#000000;" vertex="1" parent="1">
          <mxGeometry x="200" y="300" width="20" height="20" as="geometry" />
        </mxCell>
        <mxCell id="WUI7d0x4xuRXz8EVybFa-333" value="&lt;font style=&quot;font-size: 20px&quot;&gt;×&lt;/font&gt;" style="text;html=1;strokeColor=default;fillColor=none;align=center;verticalAlign=middle;whiteSpace=wrap;rounded=0;sketch=0;fontFamily=Times New Roman;fontSize=16;fontColor=#000000;" vertex="1" parent="1">
          <mxGeometry x="200" y="280" width="20" height="20" as="geometry" />
        </mxCell>
        <mxCell id="WUI7d0x4xuRXz8EVybFa-334" value="0" style="text;html=1;strokeColor=default;fillColor=none;align=center;verticalAlign=middle;whiteSpace=wrap;rounded=0;sketch=0;fontFamily=Times New Roman;fontSize=16;fontColor=#000000;" vertex="1" parent="1">
          <mxGeometry x="180" y="280" width="20" height="20" as="geometry" />
        </mxCell>
        <mxCell id="WUI7d0x4xuRXz8EVybFa-335" value="&lt;font style=&quot;font-size: 20px&quot;&gt;×&lt;/font&gt;" style="text;html=1;strokeColor=default;fillColor=none;align=center;verticalAlign=middle;whiteSpace=wrap;rounded=0;sketch=0;fontFamily=Times New Roman;fontSize=16;fontColor=#000000;" vertex="1" parent="1">
          <mxGeometry x="180" y="300" width="20" height="20" as="geometry" />
        </mxCell>
        <mxCell id="WUI7d0x4xuRXz8EVybFa-336" value="0" style="text;html=1;strokeColor=default;fillColor=none;align=center;verticalAlign=middle;whiteSpace=wrap;rounded=0;sketch=0;fontFamily=Times New Roman;fontSize=16;fontColor=#000000;" vertex="1" parent="1">
          <mxGeometry x="200" y="340" width="20" height="20" as="geometry" />
        </mxCell>
        <mxCell id="WUI7d0x4xuRXz8EVybFa-337" value="&lt;font style=&quot;font-size: 20px&quot;&gt;×&lt;/font&gt;" style="text;html=1;strokeColor=default;fillColor=none;align=center;verticalAlign=middle;whiteSpace=wrap;rounded=0;sketch=0;fontFamily=Times New Roman;fontSize=16;fontColor=#000000;" vertex="1" parent="1">
          <mxGeometry x="200" y="320" width="20" height="20" as="geometry" />
        </mxCell>
        <mxCell id="WUI7d0x4xuRXz8EVybFa-338" value="0" style="text;html=1;strokeColor=default;fillColor=none;align=center;verticalAlign=middle;whiteSpace=wrap;rounded=0;sketch=0;fontFamily=Times New Roman;fontSize=16;fontColor=#000000;" vertex="1" parent="1">
          <mxGeometry x="180" y="320" width="20" height="20" as="geometry" />
        </mxCell>
        <mxCell id="WUI7d0x4xuRXz8EVybFa-339" value="&lt;font style=&quot;font-size: 20px&quot;&gt;×&lt;/font&gt;" style="text;html=1;strokeColor=default;fillColor=none;align=center;verticalAlign=middle;whiteSpace=wrap;rounded=0;sketch=0;fontFamily=Times New Roman;fontSize=16;fontColor=#000000;" vertex="1" parent="1">
          <mxGeometry x="180" y="340" width="20" height="20" as="geometry" />
        </mxCell>
        <mxCell id="WUI7d0x4xuRXz8EVybFa-340" value="0" style="text;html=1;strokeColor=default;fillColor=none;align=center;verticalAlign=middle;whiteSpace=wrap;rounded=0;sketch=0;fontFamily=Times New Roman;fontSize=16;fontColor=#000000;" vertex="1" parent="1">
          <mxGeometry x="200" y="380" width="20" height="20" as="geometry" />
        </mxCell>
        <mxCell id="WUI7d0x4xuRXz8EVybFa-341" value="&lt;font style=&quot;font-size: 20px&quot;&gt;×&lt;/font&gt;" style="text;html=1;strokeColor=default;fillColor=none;align=center;verticalAlign=middle;whiteSpace=wrap;rounded=0;sketch=0;fontFamily=Times New Roman;fontSize=16;fontColor=#000000;" vertex="1" parent="1">
          <mxGeometry x="200" y="360" width="20" height="20" as="geometry" />
        </mxCell>
        <mxCell id="WUI7d0x4xuRXz8EVybFa-342" value="0" style="text;html=1;strokeColor=default;fillColor=none;align=center;verticalAlign=middle;whiteSpace=wrap;rounded=0;sketch=0;fontFamily=Times New Roman;fontSize=16;fontColor=#000000;" vertex="1" parent="1">
          <mxGeometry x="180" y="360" width="20" height="20" as="geometry" />
        </mxCell>
        <mxCell id="WUI7d0x4xuRXz8EVybFa-343" value="&lt;font style=&quot;font-size: 20px&quot;&gt;×&lt;/font&gt;" style="text;html=1;strokeColor=default;fillColor=none;align=center;verticalAlign=middle;whiteSpace=wrap;rounded=0;sketch=0;fontFamily=Times New Roman;fontSize=16;fontColor=#000000;" vertex="1" parent="1">
          <mxGeometry x="180" y="380" width="20" height="20" as="geometry" />
        </mxCell>
        <mxCell id="WUI7d0x4xuRXz8EVybFa-344" value="0" style="text;html=1;strokeColor=default;fillColor=none;align=center;verticalAlign=middle;whiteSpace=wrap;rounded=0;sketch=0;fontFamily=Times New Roman;fontSize=16;fontColor=#000000;" vertex="1" parent="1">
          <mxGeometry x="360" y="420" width="20" height="20" as="geometry" />
        </mxCell>
        <mxCell id="WUI7d0x4xuRXz8EVybFa-345" value="&lt;font style=&quot;font-size: 20px&quot;&gt;×&lt;/font&gt;" style="text;html=1;strokeColor=default;fillColor=none;align=center;verticalAlign=middle;whiteSpace=wrap;rounded=0;sketch=0;fontFamily=Times New Roman;fontSize=16;fontColor=#000000;" vertex="1" parent="1">
          <mxGeometry x="360" y="400" width="20" height="20" as="geometry" />
        </mxCell>
        <mxCell id="WUI7d0x4xuRXz8EVybFa-346" value="0" style="text;html=1;strokeColor=default;fillColor=none;align=center;verticalAlign=middle;whiteSpace=wrap;rounded=0;sketch=0;fontFamily=Times New Roman;fontSize=16;fontColor=#000000;" vertex="1" parent="1">
          <mxGeometry x="340" y="400" width="20" height="20" as="geometry" />
        </mxCell>
        <mxCell id="WUI7d0x4xuRXz8EVybFa-347" value="&lt;font style=&quot;font-size: 20px&quot;&gt;×&lt;/font&gt;" style="text;html=1;strokeColor=default;fillColor=none;align=center;verticalAlign=middle;whiteSpace=wrap;rounded=0;sketch=0;fontFamily=Times New Roman;fontSize=16;fontColor=#000000;" vertex="1" parent="1">
          <mxGeometry x="340" y="420" width="20" height="20" as="geometry" />
        </mxCell>
        <mxCell id="WUI7d0x4xuRXz8EVybFa-348" value="0" style="text;html=1;strokeColor=default;fillColor=none;align=center;verticalAlign=middle;whiteSpace=wrap;rounded=0;sketch=0;fontFamily=Times New Roman;fontSize=16;fontColor=#000000;" vertex="1" parent="1">
          <mxGeometry x="240" y="420" width="20" height="20" as="geometry" />
        </mxCell>
        <mxCell id="WUI7d0x4xuRXz8EVybFa-349" value="&lt;font style=&quot;font-size: 20px&quot;&gt;×&lt;/font&gt;" style="text;html=1;strokeColor=default;fillColor=none;align=center;verticalAlign=middle;whiteSpace=wrap;rounded=0;sketch=0;fontFamily=Times New Roman;fontSize=16;fontColor=#000000;" vertex="1" parent="1">
          <mxGeometry x="240" y="400" width="20" height="20" as="geometry" />
        </mxCell>
        <mxCell id="WUI7d0x4xuRXz8EVybFa-350" value="0" style="text;html=1;strokeColor=default;fillColor=none;align=center;verticalAlign=middle;whiteSpace=wrap;rounded=0;sketch=0;fontFamily=Times New Roman;fontSize=16;fontColor=#000000;" vertex="1" parent="1">
          <mxGeometry x="220" y="400" width="20" height="20" as="geometry" />
        </mxCell>
        <mxCell id="WUI7d0x4xuRXz8EVybFa-351" value="&lt;font style=&quot;font-size: 20px&quot;&gt;×&lt;/font&gt;" style="text;html=1;strokeColor=default;fillColor=none;align=center;verticalAlign=middle;whiteSpace=wrap;rounded=0;sketch=0;fontFamily=Times New Roman;fontSize=16;fontColor=#000000;" vertex="1" parent="1">
          <mxGeometry x="220" y="420" width="20" height="20" as="geometry" />
        </mxCell>
        <mxCell id="WUI7d0x4xuRXz8EVybFa-352" value="0" style="text;html=1;strokeColor=default;fillColor=none;align=center;verticalAlign=middle;whiteSpace=wrap;rounded=0;sketch=0;fontFamily=Times New Roman;fontSize=16;fontColor=#000000;" vertex="1" parent="1">
          <mxGeometry x="280" y="420" width="20" height="20" as="geometry" />
        </mxCell>
        <mxCell id="WUI7d0x4xuRXz8EVybFa-353" value="&lt;font style=&quot;font-size: 20px&quot;&gt;×&lt;/font&gt;" style="text;html=1;strokeColor=default;fillColor=none;align=center;verticalAlign=middle;whiteSpace=wrap;rounded=0;sketch=0;fontFamily=Times New Roman;fontSize=16;fontColor=#000000;" vertex="1" parent="1">
          <mxGeometry x="280" y="400" width="20" height="20" as="geometry" />
        </mxCell>
        <mxCell id="WUI7d0x4xuRXz8EVybFa-354" value="0" style="text;html=1;strokeColor=default;fillColor=none;align=center;verticalAlign=middle;whiteSpace=wrap;rounded=0;sketch=0;fontFamily=Times New Roman;fontSize=16;fontColor=#000000;" vertex="1" parent="1">
          <mxGeometry x="260" y="400" width="20" height="20" as="geometry" />
        </mxCell>
        <mxCell id="WUI7d0x4xuRXz8EVybFa-355" value="&lt;font style=&quot;font-size: 20px&quot;&gt;×&lt;/font&gt;" style="text;html=1;strokeColor=default;fillColor=none;align=center;verticalAlign=middle;whiteSpace=wrap;rounded=0;sketch=0;fontFamily=Times New Roman;fontSize=16;fontColor=#000000;" vertex="1" parent="1">
          <mxGeometry x="260" y="420" width="20" height="20" as="geometry" />
        </mxCell>
        <mxCell id="WUI7d0x4xuRXz8EVybFa-356" value="0" style="text;html=1;strokeColor=default;fillColor=none;align=center;verticalAlign=middle;whiteSpace=wrap;rounded=0;sketch=0;fontFamily=Times New Roman;fontSize=16;fontColor=#000000;" vertex="1" parent="1">
          <mxGeometry x="320" y="420" width="20" height="20" as="geometry" />
        </mxCell>
        <mxCell id="WUI7d0x4xuRXz8EVybFa-357" value="&lt;font style=&quot;font-size: 20px&quot;&gt;×&lt;/font&gt;" style="text;html=1;strokeColor=default;fillColor=none;align=center;verticalAlign=middle;whiteSpace=wrap;rounded=0;sketch=0;fontFamily=Times New Roman;fontSize=16;fontColor=#000000;" vertex="1" parent="1">
          <mxGeometry x="320" y="400" width="20" height="20" as="geometry" />
        </mxCell>
        <mxCell id="WUI7d0x4xuRXz8EVybFa-358" value="0" style="text;html=1;strokeColor=default;fillColor=none;align=center;verticalAlign=middle;whiteSpace=wrap;rounded=0;sketch=0;fontFamily=Times New Roman;fontSize=16;fontColor=#000000;" vertex="1" parent="1">
          <mxGeometry x="300" y="400" width="20" height="20" as="geometry" />
        </mxCell>
        <mxCell id="WUI7d0x4xuRXz8EVybFa-359" value="&lt;font style=&quot;font-size: 20px&quot;&gt;×&lt;/font&gt;" style="text;html=1;strokeColor=default;fillColor=none;align=center;verticalAlign=middle;whiteSpace=wrap;rounded=0;sketch=0;fontFamily=Times New Roman;fontSize=16;fontColor=#000000;" vertex="1" parent="1">
          <mxGeometry x="300" y="420" width="20" height="20" as="geometry" />
        </mxCell>
        <mxCell id="WUI7d0x4xuRXz8EVybFa-360" value="0" style="text;html=1;strokeColor=default;fillColor=none;align=center;verticalAlign=middle;whiteSpace=wrap;rounded=0;sketch=0;fontFamily=Times New Roman;fontSize=16;fontColor=#000000;" vertex="1" parent="1">
          <mxGeometry x="200" y="420" width="20" height="20" as="geometry" />
        </mxCell>
        <mxCell id="WUI7d0x4xuRXz8EVybFa-361" value="&lt;font style=&quot;font-size: 20px&quot;&gt;×&lt;/font&gt;" style="text;html=1;strokeColor=default;fillColor=none;align=center;verticalAlign=middle;whiteSpace=wrap;rounded=0;sketch=0;fontFamily=Times New Roman;fontSize=16;fontColor=#000000;" vertex="1" parent="1">
          <mxGeometry x="200" y="400" width="20" height="20" as="geometry" />
        </mxCell>
        <mxCell id="WUI7d0x4xuRXz8EVybFa-362" value="0" style="text;html=1;strokeColor=default;fillColor=none;align=center;verticalAlign=middle;whiteSpace=wrap;rounded=0;sketch=0;fontFamily=Times New Roman;fontSize=16;fontColor=#000000;" vertex="1" parent="1">
          <mxGeometry x="180" y="400" width="20" height="20" as="geometry" />
        </mxCell>
        <mxCell id="WUI7d0x4xuRXz8EVybFa-363" value="&lt;font style=&quot;font-size: 20px&quot;&gt;×&lt;/font&gt;" style="text;html=1;strokeColor=default;fillColor=none;align=center;verticalAlign=middle;whiteSpace=wrap;rounded=0;sketch=0;fontFamily=Times New Roman;fontSize=16;fontColor=#000000;" vertex="1" parent="1">
          <mxGeometry x="180" y="420" width="20" height="20" as="geometry" />
        </mxCell>
        <mxCell id="WUI7d0x4xuRXz8EVybFa-464" value="&lt;font face=&quot;Times New Roman&quot;&gt;Intermediate Predicted &quot;Dot&quot; set image &lt;i&gt;I&lt;sub&gt;D&lt;/sub&gt;&lt;/i&gt;&lt;/font&gt;" style="text;html=1;strokeColor=none;fillColor=none;align=center;verticalAlign=middle;whiteSpace=wrap;rounded=0;fontSize=16;" vertex="1" parent="1">
          <mxGeometry x="500" y="444" width="150" height="30" as="geometry" />
        </mxCell>
        <mxCell id="WUI7d0x4xuRXz8EVybFa-466" value="&lt;font face=&quot;Times New Roman&quot;&gt;^&lt;/font&gt;" style="text;html=1;strokeColor=none;fillColor=none;align=center;verticalAlign=middle;whiteSpace=wrap;rounded=0;fontSize=16;" vertex="1" parent="1">
          <mxGeometry x="610" y="446" width="30" height="30" as="geometry" />
        </mxCell>
        <mxCell id="WUI7d0x4xuRXz8EVybFa-467" value="&lt;font face=&quot;Times New Roman&quot;&gt;(a) When K=3 and K=5 in the feature extraction step&lt;/font&gt;" style="text;html=1;strokeColor=none;fillColor=none;align=center;verticalAlign=middle;whiteSpace=wrap;rounded=0;fontSize=16;" vertex="1" parent="1">
          <mxGeometry x="195" y="474" width="455" height="30" as="geometry" />
        </mxCell>
        <mxCell id="WUI7d0x4xuRXz8EVybFa-468" value="&lt;font face=&quot;Times New Roman&quot;&gt;(b) When K=3 in the image prediction step&amp;nbsp;&lt;/font&gt;" style="text;html=1;strokeColor=none;fillColor=none;align=center;verticalAlign=middle;whiteSpace=wrap;rounded=0;fontSize=16;" vertex="1" parent="1">
          <mxGeometry x="206" y="748" width="455" height="30" as="geometry" />
        </mxCell>
        <mxCell id="WUI7d0x4xuRXz8EVybFa-471" value="&lt;h1&gt;&lt;br&gt;&lt;/h1&gt;" style="text;html=1;strokeColor=#FF0000;fillColor=none;spacing=5;spacingTop=-20;whiteSpace=wrap;overflow=hidden;rounded=0;sketch=0;fontFamily=Times New Roman;fontSize=20;fontColor=#000000;strokeWidth=3;" vertex="1" parent="1">
          <mxGeometry x="180" y="240" width="60" height="60" as="geometry" />
        </mxCell>
        <mxCell id="WUI7d0x4xuRXz8EVybFa-473" value="&lt;h1&gt;&lt;br&gt;&lt;/h1&gt;" style="text;html=1;strokeColor=#FF0000;fillColor=none;spacing=5;spacingTop=-20;whiteSpace=wrap;overflow=hidden;rounded=0;sketch=0;fontFamily=Times New Roman;fontSize=20;fontColor=#000000;strokeWidth=3;" vertex="1" parent="1">
          <mxGeometry x="180" y="507" width="60" height="60" as="geometry" />
        </mxCell>
        <mxCell id="WUI7d0x4xuRXz8EVybFa-474" value="&lt;h1&gt;&lt;br&gt;&lt;/h1&gt;" style="text;html=1;strokeColor=#FF0000;fillColor=none;spacing=5;spacingTop=-20;whiteSpace=wrap;overflow=hidden;rounded=0;sketch=0;fontFamily=Times New Roman;fontSize=20;fontColor=#000000;strokeWidth=3;" vertex="1" parent="1">
          <mxGeometry x="260" y="587" width="60" height="60" as="geometry" />
        </mxCell>
        <mxCell id="WUI7d0x4xuRXz8EVybFa-475" value="&lt;h1&gt;&lt;br&gt;&lt;/h1&gt;" style="text;html=1;strokeColor=#00FF00;fillColor=none;spacing=5;spacingTop=-20;whiteSpace=wrap;overflow=hidden;rounded=0;sketch=0;fontFamily=Times New Roman;fontSize=20;fontColor=#000000;strokeWidth=3;" vertex="1" parent="1">
          <mxGeometry x="260" y="320" width="100" height="100" as="geometry" />
        </mxCell>
        <mxCell id="WUI7d0x4xuRXz8EVybFa-477" value="&lt;h1&gt;&lt;br&gt;&lt;/h1&gt;" style="text;html=1;strokeColor=#FF0000;fillColor=none;spacing=5;spacingTop=-20;whiteSpace=wrap;overflow=hidden;rounded=0;sketch=0;fontFamily=Times New Roman;fontSize=20;fontColor=#000000;strokeWidth=3;" vertex="1" parent="1">
          <mxGeometry x="490" y="260" width="20" height="20" as="geometry" />
        </mxCell>
        <mxCell id="WUI7d0x4xuRXz8EVybFa-478" value="0" style="text;html=1;strokeColor=default;fillColor=none;align=center;verticalAlign=middle;whiteSpace=wrap;rounded=0;sketch=0;fontFamily=Times New Roman;fontSize=16;" vertex="1" parent="1">
          <mxGeometry x="510" y="260" width="20" height="20" as="geometry" />
        </mxCell>
        <mxCell id="WUI7d0x4xuRXz8EVybFa-479" style="edgeStyle=orthogonalEdgeStyle;rounded=0;orthogonalLoop=1;jettySize=auto;html=1;fontFamily=Times New Roman;fontSize=12;" edge="1" parent="1">
          <mxGeometry relative="1" as="geometry">
            <mxPoint x="620" y="330" as="sourcePoint" />
            <mxPoint x="620" y="330" as="targetPoint" />
          </mxGeometry>
        </mxCell>
        <mxCell id="WUI7d0x4xuRXz8EVybFa-480" value="&lt;font style=&quot;font-size: 55px&quot; color=&quot;#cc6600&quot;&gt;·&lt;/font&gt;" style="text;html=1;strokeColor=default;fillColor=none;align=center;verticalAlign=middle;whiteSpace=wrap;rounded=0;sketch=0;fontFamily=Times New Roman;fontSize=16;" vertex="1" parent="1">
          <mxGeometry x="510" y="240" width="20" height="20" as="geometry" />
        </mxCell>
        <mxCell id="WUI7d0x4xuRXz8EVybFa-481" value="0" style="text;html=1;strokeColor=default;fillColor=none;align=center;verticalAlign=middle;whiteSpace=wrap;rounded=0;sketch=0;fontFamily=Times New Roman;fontSize=16;" vertex="1" parent="1">
          <mxGeometry x="530" y="240" width="20" height="20" as="geometry" />
        </mxCell>
        <mxCell id="WUI7d0x4xuRXz8EVybFa-482" value="0" style="text;html=1;strokeColor=default;fillColor=none;align=center;verticalAlign=middle;whiteSpace=wrap;rounded=0;sketch=0;fontFamily=Times New Roman;fontSize=16;" vertex="1" parent="1">
          <mxGeometry x="550" y="260" width="20" height="20" as="geometry" />
        </mxCell>
        <mxCell id="WUI7d0x4xuRXz8EVybFa-483" value="&lt;font style=&quot;font-size: 55px&quot; color=&quot;#cc6600&quot;&gt;·&lt;/font&gt;" style="text;html=1;strokeColor=default;fillColor=none;align=center;verticalAlign=middle;whiteSpace=wrap;rounded=0;sketch=0;fontFamily=Times New Roman;fontSize=16;" vertex="1" parent="1">
          <mxGeometry x="550" y="240" width="20" height="20" as="geometry" />
        </mxCell>
        <mxCell id="WUI7d0x4xuRXz8EVybFa-484" value="&lt;font style=&quot;font-size: 55px&quot; color=&quot;#cc6600&quot;&gt;·&lt;/font&gt;" style="text;html=1;strokeColor=default;fillColor=none;align=center;verticalAlign=middle;whiteSpace=wrap;rounded=0;sketch=0;fontFamily=Times New Roman;fontSize=16;" vertex="1" parent="1">
          <mxGeometry x="530" y="260" width="20" height="20" as="geometry" />
        </mxCell>
        <mxCell id="WUI7d0x4xuRXz8EVybFa-485" value="0" style="text;html=1;strokeColor=default;fillColor=none;align=center;verticalAlign=middle;whiteSpace=wrap;rounded=0;sketch=0;fontFamily=Times New Roman;fontSize=16;" vertex="1" parent="1">
          <mxGeometry x="510" y="300" width="20" height="20" as="geometry" />
        </mxCell>
        <mxCell id="WUI7d0x4xuRXz8EVybFa-486" value="&lt;font style=&quot;font-size: 55px&quot; color=&quot;#cc6600&quot;&gt;·&lt;/font&gt;" style="text;html=1;strokeColor=default;fillColor=none;align=center;verticalAlign=middle;whiteSpace=wrap;rounded=0;sketch=0;fontFamily=Times New Roman;fontSize=16;" vertex="1" parent="1">
          <mxGeometry x="510" y="280" width="20" height="20" as="geometry" />
        </mxCell>
        <mxCell id="WUI7d0x4xuRXz8EVybFa-487" value="0" style="text;html=1;strokeColor=default;fillColor=none;align=center;verticalAlign=middle;whiteSpace=wrap;rounded=0;sketch=0;fontFamily=Times New Roman;fontSize=16;" vertex="1" parent="1">
          <mxGeometry x="530" y="280" width="20" height="20" as="geometry" />
        </mxCell>
        <mxCell id="WUI7d0x4xuRXz8EVybFa-488" value="0" style="text;html=1;strokeColor=default;fillColor=none;align=center;verticalAlign=middle;whiteSpace=wrap;rounded=0;sketch=0;fontFamily=Times New Roman;fontSize=16;" vertex="1" parent="1">
          <mxGeometry x="550" y="300" width="20" height="20" as="geometry" />
        </mxCell>
        <mxCell id="WUI7d0x4xuRXz8EVybFa-489" value="&lt;font style=&quot;font-size: 55px&quot; color=&quot;#cc6600&quot;&gt;·&lt;/font&gt;" style="text;html=1;strokeColor=default;fillColor=none;align=center;verticalAlign=middle;whiteSpace=wrap;rounded=0;sketch=0;fontFamily=Times New Roman;fontSize=16;" vertex="1" parent="1">
          <mxGeometry x="550" y="280" width="20" height="20" as="geometry" />
        </mxCell>
        <mxCell id="WUI7d0x4xuRXz8EVybFa-490" value="&lt;font style=&quot;font-size: 55px&quot; color=&quot;#cc6600&quot;&gt;·&lt;/font&gt;" style="text;html=1;strokeColor=default;fillColor=none;align=center;verticalAlign=middle;whiteSpace=wrap;rounded=0;sketch=0;fontFamily=Times New Roman;fontSize=16;" vertex="1" parent="1">
          <mxGeometry x="530" y="300" width="20" height="20" as="geometry" />
        </mxCell>
        <mxCell id="WUI7d0x4xuRXz8EVybFa-491" value="0" style="text;html=1;strokeColor=default;fillColor=none;align=center;verticalAlign=middle;whiteSpace=wrap;rounded=0;sketch=0;fontFamily=Times New Roman;fontSize=16;" vertex="1" parent="1">
          <mxGeometry x="570" y="240" width="20" height="20" as="geometry" />
        </mxCell>
        <mxCell id="WUI7d0x4xuRXz8EVybFa-492" value="0" style="text;html=1;strokeColor=default;fillColor=none;align=center;verticalAlign=middle;whiteSpace=wrap;rounded=0;sketch=0;fontFamily=Times New Roman;fontSize=16;" vertex="1" parent="1">
          <mxGeometry x="590" y="260" width="20" height="20" as="geometry" />
        </mxCell>
        <mxCell id="WUI7d0x4xuRXz8EVybFa-493" value="&lt;font style=&quot;font-size: 55px&quot; color=&quot;#cc6600&quot;&gt;·&lt;/font&gt;" style="text;html=1;strokeColor=default;fillColor=none;align=center;verticalAlign=middle;whiteSpace=wrap;rounded=0;sketch=0;fontFamily=Times New Roman;fontSize=16;" vertex="1" parent="1">
          <mxGeometry x="590" y="240" width="20" height="20" as="geometry" />
        </mxCell>
        <mxCell id="WUI7d0x4xuRXz8EVybFa-494" value="&lt;font style=&quot;font-size: 55px&quot; color=&quot;#cc6600&quot;&gt;·&lt;/font&gt;" style="text;html=1;strokeColor=default;fillColor=none;align=center;verticalAlign=middle;whiteSpace=wrap;rounded=0;sketch=0;fontFamily=Times New Roman;fontSize=16;" vertex="1" parent="1">
          <mxGeometry x="570" y="260" width="20" height="20" as="geometry" />
        </mxCell>
        <mxCell id="WUI7d0x4xuRXz8EVybFa-495" value="0" style="text;html=1;strokeColor=default;fillColor=none;align=center;verticalAlign=middle;whiteSpace=wrap;rounded=0;sketch=0;fontFamily=Times New Roman;fontSize=16;" vertex="1" parent="1">
          <mxGeometry x="610" y="240" width="20" height="20" as="geometry" />
        </mxCell>
        <mxCell id="WUI7d0x4xuRXz8EVybFa-496" value="0" style="text;html=1;strokeColor=default;fillColor=none;align=center;verticalAlign=middle;whiteSpace=wrap;rounded=0;sketch=0;fontFamily=Times New Roman;fontSize=16;" vertex="1" parent="1">
          <mxGeometry x="630" y="260" width="20" height="20" as="geometry" />
        </mxCell>
        <mxCell id="WUI7d0x4xuRXz8EVybFa-497" value="&lt;font style=&quot;font-size: 55px&quot; color=&quot;#cc6600&quot;&gt;·&lt;/font&gt;" style="text;html=1;strokeColor=default;fillColor=none;align=center;verticalAlign=middle;whiteSpace=wrap;rounded=0;sketch=0;fontFamily=Times New Roman;fontSize=16;" vertex="1" parent="1">
          <mxGeometry x="630" y="240" width="20" height="20" as="geometry" />
        </mxCell>
        <mxCell id="WUI7d0x4xuRXz8EVybFa-498" value="&lt;font style=&quot;font-size: 55px&quot; color=&quot;#cc6600&quot;&gt;·&lt;/font&gt;" style="text;html=1;strokeColor=default;fillColor=none;align=center;verticalAlign=middle;whiteSpace=wrap;rounded=0;sketch=0;fontFamily=Times New Roman;fontSize=16;" vertex="1" parent="1">
          <mxGeometry x="610" y="260" width="20" height="20" as="geometry" />
        </mxCell>
        <mxCell id="WUI7d0x4xuRXz8EVybFa-499" value="0" style="text;html=1;strokeColor=default;fillColor=none;align=center;verticalAlign=middle;whiteSpace=wrap;rounded=0;sketch=0;fontFamily=Times New Roman;fontSize=16;" vertex="1" parent="1">
          <mxGeometry x="570" y="280" width="20" height="20" as="geometry" />
        </mxCell>
        <mxCell id="WUI7d0x4xuRXz8EVybFa-500" value="0" style="text;html=1;strokeColor=default;fillColor=none;align=center;verticalAlign=middle;whiteSpace=wrap;rounded=0;sketch=0;fontFamily=Times New Roman;fontSize=16;" vertex="1" parent="1">
          <mxGeometry x="590" y="300" width="20" height="20" as="geometry" />
        </mxCell>
        <mxCell id="WUI7d0x4xuRXz8EVybFa-501" value="&lt;font style=&quot;font-size: 55px&quot; color=&quot;#cc6600&quot;&gt;·&lt;/font&gt;" style="text;html=1;strokeColor=default;fillColor=none;align=center;verticalAlign=middle;whiteSpace=wrap;rounded=0;sketch=0;fontFamily=Times New Roman;fontSize=16;" vertex="1" parent="1">
          <mxGeometry x="590" y="280" width="20" height="20" as="geometry" />
        </mxCell>
        <mxCell id="WUI7d0x4xuRXz8EVybFa-502" value="&lt;font style=&quot;font-size: 55px&quot; color=&quot;#cc6600&quot;&gt;·&lt;/font&gt;" style="text;html=1;strokeColor=default;fillColor=none;align=center;verticalAlign=middle;whiteSpace=wrap;rounded=0;sketch=0;fontFamily=Times New Roman;fontSize=16;" vertex="1" parent="1">
          <mxGeometry x="570" y="300" width="20" height="20" as="geometry" />
        </mxCell>
        <mxCell id="WUI7d0x4xuRXz8EVybFa-503" value="0" style="text;html=1;strokeColor=default;fillColor=none;align=center;verticalAlign=middle;whiteSpace=wrap;rounded=0;sketch=0;fontFamily=Times New Roman;fontSize=16;" vertex="1" parent="1">
          <mxGeometry x="610" y="280" width="20" height="20" as="geometry" />
        </mxCell>
        <mxCell id="WUI7d0x4xuRXz8EVybFa-504" value="0" style="text;html=1;strokeColor=default;fillColor=none;align=center;verticalAlign=middle;whiteSpace=wrap;rounded=0;sketch=0;fontFamily=Times New Roman;fontSize=16;" vertex="1" parent="1">
          <mxGeometry x="630" y="300" width="20" height="20" as="geometry" />
        </mxCell>
        <mxCell id="WUI7d0x4xuRXz8EVybFa-505" value="&lt;font style=&quot;font-size: 55px&quot; color=&quot;#cc6600&quot;&gt;·&lt;/font&gt;" style="text;html=1;strokeColor=default;fillColor=none;align=center;verticalAlign=middle;whiteSpace=wrap;rounded=0;sketch=0;fontFamily=Times New Roman;fontSize=16;" vertex="1" parent="1">
          <mxGeometry x="630" y="280" width="20" height="20" as="geometry" />
        </mxCell>
        <mxCell id="WUI7d0x4xuRXz8EVybFa-506" value="&lt;font style=&quot;font-size: 55px&quot; color=&quot;#cc6600&quot;&gt;·&lt;/font&gt;" style="text;html=1;strokeColor=default;fillColor=none;align=center;verticalAlign=middle;whiteSpace=wrap;rounded=0;sketch=0;fontFamily=Times New Roman;fontSize=16;" vertex="1" parent="1">
          <mxGeometry x="610" y="300" width="20" height="20" as="geometry" />
        </mxCell>
        <mxCell id="WUI7d0x4xuRXz8EVybFa-507" value="0" style="text;html=1;strokeColor=default;fillColor=none;align=center;verticalAlign=middle;whiteSpace=wrap;rounded=0;sketch=0;fontFamily=Times New Roman;fontSize=16;" vertex="1" parent="1">
          <mxGeometry x="510" y="340" width="20" height="20" as="geometry" />
        </mxCell>
        <mxCell id="WUI7d0x4xuRXz8EVybFa-508" style="edgeStyle=orthogonalEdgeStyle;rounded=0;orthogonalLoop=1;jettySize=auto;html=1;fontFamily=Times New Roman;fontSize=12;" edge="1" parent="1">
          <mxGeometry relative="1" as="geometry">
            <mxPoint x="620" y="410" as="sourcePoint" />
            <mxPoint x="620" y="410" as="targetPoint" />
          </mxGeometry>
        </mxCell>
        <mxCell id="WUI7d0x4xuRXz8EVybFa-509" value="&lt;font style=&quot;font-size: 55px&quot; color=&quot;#cc6600&quot;&gt;·&lt;/font&gt;" style="text;html=1;strokeColor=default;fillColor=none;align=center;verticalAlign=middle;whiteSpace=wrap;rounded=0;sketch=0;fontFamily=Times New Roman;fontSize=16;" vertex="1" parent="1">
          <mxGeometry x="510" y="320" width="20" height="20" as="geometry" />
        </mxCell>
        <mxCell id="WUI7d0x4xuRXz8EVybFa-510" value="0" style="text;html=1;strokeColor=default;fillColor=none;align=center;verticalAlign=middle;whiteSpace=wrap;rounded=0;sketch=0;fontFamily=Times New Roman;fontSize=16;" vertex="1" parent="1">
          <mxGeometry x="530" y="320" width="20" height="20" as="geometry" />
        </mxCell>
        <mxCell id="WUI7d0x4xuRXz8EVybFa-511" value="0" style="text;html=1;strokeColor=default;fillColor=none;align=center;verticalAlign=middle;whiteSpace=wrap;rounded=0;sketch=0;fontFamily=Times New Roman;fontSize=16;" vertex="1" parent="1">
          <mxGeometry x="550" y="340" width="20" height="20" as="geometry" />
        </mxCell>
        <mxCell id="WUI7d0x4xuRXz8EVybFa-512" value="&lt;font style=&quot;font-size: 55px&quot; color=&quot;#cc6600&quot;&gt;·&lt;/font&gt;" style="text;html=1;strokeColor=default;fillColor=none;align=center;verticalAlign=middle;whiteSpace=wrap;rounded=0;sketch=0;fontFamily=Times New Roman;fontSize=16;" vertex="1" parent="1">
          <mxGeometry x="550" y="320" width="20" height="20" as="geometry" />
        </mxCell>
        <mxCell id="WUI7d0x4xuRXz8EVybFa-513" value="&lt;font style=&quot;font-size: 55px&quot; color=&quot;#cc6600&quot;&gt;·&lt;/font&gt;" style="text;html=1;strokeColor=default;fillColor=none;align=center;verticalAlign=middle;whiteSpace=wrap;rounded=0;sketch=0;fontFamily=Times New Roman;fontSize=16;" vertex="1" parent="1">
          <mxGeometry x="530" y="340" width="20" height="20" as="geometry" />
        </mxCell>
        <mxCell id="WUI7d0x4xuRXz8EVybFa-514" value="0" style="text;html=1;strokeColor=default;fillColor=none;align=center;verticalAlign=middle;whiteSpace=wrap;rounded=0;sketch=0;fontFamily=Times New Roman;fontSize=16;" vertex="1" parent="1">
          <mxGeometry x="510" y="380" width="20" height="20" as="geometry" />
        </mxCell>
        <mxCell id="WUI7d0x4xuRXz8EVybFa-515" value="&lt;font style=&quot;font-size: 55px&quot; color=&quot;#cc6600&quot;&gt;·&lt;/font&gt;" style="text;html=1;strokeColor=default;fillColor=none;align=center;verticalAlign=middle;whiteSpace=wrap;rounded=0;sketch=0;fontFamily=Times New Roman;fontSize=16;" vertex="1" parent="1">
          <mxGeometry x="510" y="360" width="20" height="20" as="geometry" />
        </mxCell>
        <mxCell id="WUI7d0x4xuRXz8EVybFa-516" value="0" style="text;html=1;strokeColor=default;fillColor=none;align=center;verticalAlign=middle;whiteSpace=wrap;rounded=0;sketch=0;fontFamily=Times New Roman;fontSize=16;" vertex="1" parent="1">
          <mxGeometry x="530" y="360" width="20" height="20" as="geometry" />
        </mxCell>
        <mxCell id="WUI7d0x4xuRXz8EVybFa-517" value="0" style="text;html=1;strokeColor=default;fillColor=none;align=center;verticalAlign=middle;whiteSpace=wrap;rounded=0;sketch=0;fontFamily=Times New Roman;fontSize=16;" vertex="1" parent="1">
          <mxGeometry x="550" y="380" width="20" height="20" as="geometry" />
        </mxCell>
        <mxCell id="WUI7d0x4xuRXz8EVybFa-518" value="&lt;font style=&quot;font-size: 55px&quot; color=&quot;#cc6600&quot;&gt;·&lt;/font&gt;" style="text;html=1;strokeColor=default;fillColor=none;align=center;verticalAlign=middle;whiteSpace=wrap;rounded=0;sketch=0;fontFamily=Times New Roman;fontSize=16;" vertex="1" parent="1">
          <mxGeometry x="550" y="360" width="20" height="20" as="geometry" />
        </mxCell>
        <mxCell id="WUI7d0x4xuRXz8EVybFa-519" value="&lt;font style=&quot;font-size: 55px&quot; color=&quot;#cc6600&quot;&gt;·&lt;/font&gt;" style="text;html=1;strokeColor=default;fillColor=none;align=center;verticalAlign=middle;whiteSpace=wrap;rounded=0;sketch=0;fontFamily=Times New Roman;fontSize=16;" vertex="1" parent="1">
          <mxGeometry x="530" y="380" width="20" height="20" as="geometry" />
        </mxCell>
        <mxCell id="WUI7d0x4xuRXz8EVybFa-520" value="0" style="text;html=1;strokeColor=default;fillColor=none;align=center;verticalAlign=middle;whiteSpace=wrap;rounded=0;sketch=0;fontFamily=Times New Roman;fontSize=16;" vertex="1" parent="1">
          <mxGeometry x="570" y="320" width="20" height="20" as="geometry" />
        </mxCell>
        <mxCell id="WUI7d0x4xuRXz8EVybFa-521" value="0" style="text;html=1;strokeColor=default;fillColor=none;align=center;verticalAlign=middle;whiteSpace=wrap;rounded=0;sketch=0;fontFamily=Times New Roman;fontSize=16;" vertex="1" parent="1">
          <mxGeometry x="590" y="340" width="20" height="20" as="geometry" />
        </mxCell>
        <mxCell id="WUI7d0x4xuRXz8EVybFa-522" value="&lt;font style=&quot;font-size: 55px&quot; color=&quot;#cc6600&quot;&gt;·&lt;/font&gt;" style="text;html=1;strokeColor=default;fillColor=none;align=center;verticalAlign=middle;whiteSpace=wrap;rounded=0;sketch=0;fontFamily=Times New Roman;fontSize=16;" vertex="1" parent="1">
          <mxGeometry x="590" y="320" width="20" height="20" as="geometry" />
        </mxCell>
        <mxCell id="WUI7d0x4xuRXz8EVybFa-523" value="&lt;font style=&quot;font-size: 55px&quot; color=&quot;#cc6600&quot;&gt;·&lt;/font&gt;" style="text;html=1;strokeColor=default;fillColor=none;align=center;verticalAlign=middle;whiteSpace=wrap;rounded=0;sketch=0;fontFamily=Times New Roman;fontSize=16;" vertex="1" parent="1">
          <mxGeometry x="570" y="340" width="20" height="20" as="geometry" />
        </mxCell>
        <mxCell id="WUI7d0x4xuRXz8EVybFa-524" value="0" style="text;html=1;strokeColor=default;fillColor=none;align=center;verticalAlign=middle;whiteSpace=wrap;rounded=0;sketch=0;fontFamily=Times New Roman;fontSize=16;" vertex="1" parent="1">
          <mxGeometry x="610" y="320" width="20" height="20" as="geometry" />
        </mxCell>
        <mxCell id="WUI7d0x4xuRXz8EVybFa-525" value="0" style="text;html=1;strokeColor=default;fillColor=none;align=center;verticalAlign=middle;whiteSpace=wrap;rounded=0;sketch=0;fontFamily=Times New Roman;fontSize=16;" vertex="1" parent="1">
          <mxGeometry x="630" y="340" width="20" height="20" as="geometry" />
        </mxCell>
        <mxCell id="WUI7d0x4xuRXz8EVybFa-526" value="&lt;font style=&quot;font-size: 55px&quot; color=&quot;#cc6600&quot;&gt;·&lt;/font&gt;" style="text;html=1;strokeColor=default;fillColor=none;align=center;verticalAlign=middle;whiteSpace=wrap;rounded=0;sketch=0;fontFamily=Times New Roman;fontSize=16;" vertex="1" parent="1">
          <mxGeometry x="630" y="320" width="20" height="20" as="geometry" />
        </mxCell>
        <mxCell id="WUI7d0x4xuRXz8EVybFa-527" value="&lt;font style=&quot;font-size: 55px&quot; color=&quot;#cc6600&quot;&gt;·&lt;/font&gt;" style="text;html=1;strokeColor=default;fillColor=none;align=center;verticalAlign=middle;whiteSpace=wrap;rounded=0;sketch=0;fontFamily=Times New Roman;fontSize=16;" vertex="1" parent="1">
          <mxGeometry x="610" y="340" width="20" height="20" as="geometry" />
        </mxCell>
        <mxCell id="WUI7d0x4xuRXz8EVybFa-528" value="0" style="text;html=1;strokeColor=default;fillColor=none;align=center;verticalAlign=middle;whiteSpace=wrap;rounded=0;sketch=0;fontFamily=Times New Roman;fontSize=16;" vertex="1" parent="1">
          <mxGeometry x="570" y="360" width="20" height="20" as="geometry" />
        </mxCell>
        <mxCell id="WUI7d0x4xuRXz8EVybFa-529" value="0" style="text;html=1;strokeColor=default;fillColor=none;align=center;verticalAlign=middle;whiteSpace=wrap;rounded=0;sketch=0;fontFamily=Times New Roman;fontSize=16;" vertex="1" parent="1">
          <mxGeometry x="590" y="380" width="20" height="20" as="geometry" />
        </mxCell>
        <mxCell id="WUI7d0x4xuRXz8EVybFa-530" value="&lt;font style=&quot;font-size: 55px&quot; color=&quot;#cc6600&quot;&gt;·&lt;/font&gt;" style="text;html=1;strokeColor=default;fillColor=none;align=center;verticalAlign=middle;whiteSpace=wrap;rounded=0;sketch=0;fontFamily=Times New Roman;fontSize=16;" vertex="1" parent="1">
          <mxGeometry x="590" y="360" width="20" height="20" as="geometry" />
        </mxCell>
        <mxCell id="WUI7d0x4xuRXz8EVybFa-531" value="&lt;font style=&quot;font-size: 55px&quot; color=&quot;#cc6600&quot;&gt;·&lt;/font&gt;" style="text;html=1;strokeColor=default;fillColor=none;align=center;verticalAlign=middle;whiteSpace=wrap;rounded=0;sketch=0;fontFamily=Times New Roman;fontSize=16;" vertex="1" parent="1">
          <mxGeometry x="570" y="380" width="20" height="20" as="geometry" />
        </mxCell>
        <mxCell id="WUI7d0x4xuRXz8EVybFa-532" value="0" style="text;html=1;strokeColor=default;fillColor=none;align=center;verticalAlign=middle;whiteSpace=wrap;rounded=0;sketch=0;fontFamily=Times New Roman;fontSize=16;" vertex="1" parent="1">
          <mxGeometry x="610" y="360" width="20" height="20" as="geometry" />
        </mxCell>
        <mxCell id="WUI7d0x4xuRXz8EVybFa-533" value="0" style="text;html=1;strokeColor=default;fillColor=none;align=center;verticalAlign=middle;whiteSpace=wrap;rounded=0;sketch=0;fontFamily=Times New Roman;fontSize=16;" vertex="1" parent="1">
          <mxGeometry x="630" y="380" width="20" height="20" as="geometry" />
        </mxCell>
        <mxCell id="WUI7d0x4xuRXz8EVybFa-534" value="&lt;font style=&quot;font-size: 55px&quot; color=&quot;#cc6600&quot;&gt;·&lt;/font&gt;" style="text;html=1;strokeColor=default;fillColor=none;align=center;verticalAlign=middle;whiteSpace=wrap;rounded=0;sketch=0;fontFamily=Times New Roman;fontSize=16;" vertex="1" parent="1">
          <mxGeometry x="630" y="360" width="20" height="20" as="geometry" />
        </mxCell>
        <mxCell id="WUI7d0x4xuRXz8EVybFa-535" value="&lt;font style=&quot;font-size: 55px&quot; color=&quot;#cc6600&quot;&gt;·&lt;/font&gt;" style="text;html=1;strokeColor=default;fillColor=none;align=center;verticalAlign=middle;whiteSpace=wrap;rounded=0;sketch=0;fontFamily=Times New Roman;fontSize=16;" vertex="1" parent="1">
          <mxGeometry x="610" y="380" width="20" height="20" as="geometry" />
        </mxCell>
        <mxCell id="WUI7d0x4xuRXz8EVybFa-536" value="0" style="text;html=1;strokeColor=default;fillColor=none;align=center;verticalAlign=middle;whiteSpace=wrap;rounded=0;sketch=0;fontFamily=Times New Roman;fontSize=16;" vertex="1" parent="1">
          <mxGeometry x="470" y="260" width="20" height="20" as="geometry" />
        </mxCell>
        <mxCell id="WUI7d0x4xuRXz8EVybFa-537" value="&lt;font style=&quot;font-size: 55px&quot; color=&quot;#cc6600&quot;&gt;·&lt;/font&gt;" style="text;html=1;strokeColor=default;fillColor=none;align=center;verticalAlign=middle;whiteSpace=wrap;rounded=0;sketch=0;fontFamily=Times New Roman;fontSize=16;" vertex="1" parent="1">
          <mxGeometry x="470" y="240" width="20" height="20" as="geometry" />
        </mxCell>
        <mxCell id="WUI7d0x4xuRXz8EVybFa-538" value="0" style="text;html=1;strokeColor=default;fillColor=none;align=center;verticalAlign=middle;whiteSpace=wrap;rounded=0;sketch=0;fontFamily=Times New Roman;fontSize=16;" vertex="1" parent="1">
          <mxGeometry x="490" y="240" width="20" height="20" as="geometry" />
        </mxCell>
        <mxCell id="WUI7d0x4xuRXz8EVybFa-539" value="&lt;font style=&quot;font-size: 55px&quot; color=&quot;#cc6600&quot;&gt;·&lt;/font&gt;" style="text;html=1;strokeColor=default;fillColor=none;align=center;verticalAlign=middle;whiteSpace=wrap;rounded=0;sketch=0;fontFamily=Times New Roman;fontSize=16;" vertex="1" parent="1">
          <mxGeometry x="490" y="260" width="20" height="20" as="geometry" />
        </mxCell>
        <mxCell id="WUI7d0x4xuRXz8EVybFa-540" value="0" style="text;html=1;strokeColor=default;fillColor=none;align=center;verticalAlign=middle;whiteSpace=wrap;rounded=0;sketch=0;fontFamily=Times New Roman;fontSize=16;" vertex="1" parent="1">
          <mxGeometry x="470" y="300" width="20" height="20" as="geometry" />
        </mxCell>
        <mxCell id="WUI7d0x4xuRXz8EVybFa-541" value="&lt;font style=&quot;font-size: 55px&quot; color=&quot;#cc6600&quot;&gt;·&lt;/font&gt;" style="text;html=1;strokeColor=default;fillColor=none;align=center;verticalAlign=middle;whiteSpace=wrap;rounded=0;sketch=0;fontFamily=Times New Roman;fontSize=16;" vertex="1" parent="1">
          <mxGeometry x="470" y="280" width="20" height="20" as="geometry" />
        </mxCell>
        <mxCell id="WUI7d0x4xuRXz8EVybFa-542" value="0" style="text;html=1;strokeColor=default;fillColor=none;align=center;verticalAlign=middle;whiteSpace=wrap;rounded=0;sketch=0;fontFamily=Times New Roman;fontSize=16;" vertex="1" parent="1">
          <mxGeometry x="490" y="280" width="20" height="20" as="geometry" />
        </mxCell>
        <mxCell id="WUI7d0x4xuRXz8EVybFa-543" value="&lt;font style=&quot;font-size: 55px&quot; color=&quot;#cc6600&quot;&gt;·&lt;/font&gt;" style="text;html=1;strokeColor=default;fillColor=none;align=center;verticalAlign=middle;whiteSpace=wrap;rounded=0;sketch=0;fontFamily=Times New Roman;fontSize=16;" vertex="1" parent="1">
          <mxGeometry x="490" y="300" width="20" height="20" as="geometry" />
        </mxCell>
        <mxCell id="WUI7d0x4xuRXz8EVybFa-544" value="0" style="text;html=1;strokeColor=default;fillColor=none;align=center;verticalAlign=middle;whiteSpace=wrap;rounded=0;sketch=0;fontFamily=Times New Roman;fontSize=16;" vertex="1" parent="1">
          <mxGeometry x="470" y="340" width="20" height="20" as="geometry" />
        </mxCell>
        <mxCell id="WUI7d0x4xuRXz8EVybFa-545" value="&lt;font style=&quot;font-size: 55px&quot; color=&quot;#cc6600&quot;&gt;·&lt;/font&gt;" style="text;html=1;strokeColor=default;fillColor=none;align=center;verticalAlign=middle;whiteSpace=wrap;rounded=0;sketch=0;fontFamily=Times New Roman;fontSize=16;" vertex="1" parent="1">
          <mxGeometry x="470" y="320" width="20" height="20" as="geometry" />
        </mxCell>
        <mxCell id="WUI7d0x4xuRXz8EVybFa-546" value="0" style="text;html=1;strokeColor=default;fillColor=none;align=center;verticalAlign=middle;whiteSpace=wrap;rounded=0;sketch=0;fontFamily=Times New Roman;fontSize=16;" vertex="1" parent="1">
          <mxGeometry x="490" y="320" width="20" height="20" as="geometry" />
        </mxCell>
        <mxCell id="WUI7d0x4xuRXz8EVybFa-547" value="&lt;font style=&quot;font-size: 55px&quot; color=&quot;#cc6600&quot;&gt;·&lt;/font&gt;" style="text;html=1;strokeColor=default;fillColor=none;align=center;verticalAlign=middle;whiteSpace=wrap;rounded=0;sketch=0;fontFamily=Times New Roman;fontSize=16;" vertex="1" parent="1">
          <mxGeometry x="490" y="340" width="20" height="20" as="geometry" />
        </mxCell>
        <mxCell id="WUI7d0x4xuRXz8EVybFa-548" value="0" style="text;html=1;strokeColor=default;fillColor=none;align=center;verticalAlign=middle;whiteSpace=wrap;rounded=0;sketch=0;fontFamily=Times New Roman;fontSize=16;" vertex="1" parent="1">
          <mxGeometry x="470" y="380" width="20" height="20" as="geometry" />
        </mxCell>
        <mxCell id="WUI7d0x4xuRXz8EVybFa-549" value="&lt;font style=&quot;font-size: 55px&quot; color=&quot;#cc6600&quot;&gt;·&lt;/font&gt;" style="text;html=1;strokeColor=default;fillColor=none;align=center;verticalAlign=middle;whiteSpace=wrap;rounded=0;sketch=0;fontFamily=Times New Roman;fontSize=16;" vertex="1" parent="1">
          <mxGeometry x="470" y="360" width="20" height="20" as="geometry" />
        </mxCell>
        <mxCell id="WUI7d0x4xuRXz8EVybFa-550" value="0" style="text;html=1;strokeColor=default;fillColor=none;align=center;verticalAlign=middle;whiteSpace=wrap;rounded=0;sketch=0;fontFamily=Times New Roman;fontSize=16;" vertex="1" parent="1">
          <mxGeometry x="490" y="360" width="20" height="20" as="geometry" />
        </mxCell>
        <mxCell id="WUI7d0x4xuRXz8EVybFa-551" value="&lt;font style=&quot;font-size: 55px&quot; color=&quot;#cc6600&quot;&gt;·&lt;/font&gt;" style="text;html=1;strokeColor=default;fillColor=none;align=center;verticalAlign=middle;whiteSpace=wrap;rounded=0;sketch=0;fontFamily=Times New Roman;fontSize=16;" vertex="1" parent="1">
          <mxGeometry x="490" y="380" width="20" height="20" as="geometry" />
        </mxCell>
        <mxCell id="WUI7d0x4xuRXz8EVybFa-552" value="0" style="text;html=1;strokeColor=default;fillColor=none;align=center;verticalAlign=middle;whiteSpace=wrap;rounded=0;sketch=0;fontFamily=Times New Roman;fontSize=16;" vertex="1" parent="1">
          <mxGeometry x="510" y="420" width="20" height="20" as="geometry" />
        </mxCell>
        <mxCell id="WUI7d0x4xuRXz8EVybFa-553" value="&lt;font style=&quot;font-size: 55px&quot; color=&quot;#cc6600&quot;&gt;·&lt;/font&gt;" style="text;html=1;strokeColor=default;fillColor=none;align=center;verticalAlign=middle;whiteSpace=wrap;rounded=0;sketch=0;fontFamily=Times New Roman;fontSize=16;" vertex="1" parent="1">
          <mxGeometry x="510" y="400" width="20" height="20" as="geometry" />
        </mxCell>
        <mxCell id="WUI7d0x4xuRXz8EVybFa-554" value="0" style="text;html=1;strokeColor=default;fillColor=none;align=center;verticalAlign=middle;whiteSpace=wrap;rounded=0;sketch=0;fontFamily=Times New Roman;fontSize=16;" vertex="1" parent="1">
          <mxGeometry x="530" y="400" width="20" height="20" as="geometry" />
        </mxCell>
        <mxCell id="WUI7d0x4xuRXz8EVybFa-555" value="0" style="text;html=1;strokeColor=default;fillColor=none;align=center;verticalAlign=middle;whiteSpace=wrap;rounded=0;sketch=0;fontFamily=Times New Roman;fontSize=16;" vertex="1" parent="1">
          <mxGeometry x="550" y="420" width="20" height="20" as="geometry" />
        </mxCell>
        <mxCell id="WUI7d0x4xuRXz8EVybFa-556" value="&lt;font style=&quot;font-size: 55px&quot; color=&quot;#cc6600&quot;&gt;·&lt;/font&gt;" style="text;html=1;strokeColor=default;fillColor=none;align=center;verticalAlign=middle;whiteSpace=wrap;rounded=0;sketch=0;fontFamily=Times New Roman;fontSize=16;" vertex="1" parent="1">
          <mxGeometry x="550" y="400" width="20" height="20" as="geometry" />
        </mxCell>
        <mxCell id="WUI7d0x4xuRXz8EVybFa-557" value="&lt;font style=&quot;font-size: 55px&quot; color=&quot;#cc6600&quot;&gt;·&lt;/font&gt;" style="text;html=1;strokeColor=default;fillColor=none;align=center;verticalAlign=middle;whiteSpace=wrap;rounded=0;sketch=0;fontFamily=Times New Roman;fontSize=16;" vertex="1" parent="1">
          <mxGeometry x="530" y="420" width="20" height="20" as="geometry" />
        </mxCell>
        <mxCell id="WUI7d0x4xuRXz8EVybFa-558" value="0" style="text;html=1;strokeColor=default;fillColor=none;align=center;verticalAlign=middle;whiteSpace=wrap;rounded=0;sketch=0;fontFamily=Times New Roman;fontSize=16;" vertex="1" parent="1">
          <mxGeometry x="570" y="400" width="20" height="20" as="geometry" />
        </mxCell>
        <mxCell id="WUI7d0x4xuRXz8EVybFa-559" value="0" style="text;html=1;strokeColor=default;fillColor=none;align=center;verticalAlign=middle;whiteSpace=wrap;rounded=0;sketch=0;fontFamily=Times New Roman;fontSize=16;" vertex="1" parent="1">
          <mxGeometry x="590" y="420" width="20" height="20" as="geometry" />
        </mxCell>
        <mxCell id="WUI7d0x4xuRXz8EVybFa-560" value="&lt;font style=&quot;font-size: 55px&quot; color=&quot;#cc6600&quot;&gt;·&lt;/font&gt;" style="text;html=1;strokeColor=default;fillColor=none;align=center;verticalAlign=middle;whiteSpace=wrap;rounded=0;sketch=0;fontFamily=Times New Roman;fontSize=16;" vertex="1" parent="1">
          <mxGeometry x="590" y="400" width="20" height="20" as="geometry" />
        </mxCell>
        <mxCell id="WUI7d0x4xuRXz8EVybFa-561" value="&lt;font style=&quot;font-size: 55px&quot; color=&quot;#cc6600&quot;&gt;·&lt;/font&gt;" style="text;html=1;strokeColor=default;fillColor=none;align=center;verticalAlign=middle;whiteSpace=wrap;rounded=0;sketch=0;fontFamily=Times New Roman;fontSize=16;" vertex="1" parent="1">
          <mxGeometry x="570" y="420" width="20" height="20" as="geometry" />
        </mxCell>
        <mxCell id="WUI7d0x4xuRXz8EVybFa-562" value="0" style="text;html=1;strokeColor=default;fillColor=none;align=center;verticalAlign=middle;whiteSpace=wrap;rounded=0;sketch=0;fontFamily=Times New Roman;fontSize=16;" vertex="1" parent="1">
          <mxGeometry x="610" y="400" width="20" height="20" as="geometry" />
        </mxCell>
        <mxCell id="WUI7d0x4xuRXz8EVybFa-563" value="0" style="text;html=1;strokeColor=default;fillColor=none;align=center;verticalAlign=middle;whiteSpace=wrap;rounded=0;sketch=0;fontFamily=Times New Roman;fontSize=16;" vertex="1" parent="1">
          <mxGeometry x="630" y="420" width="20" height="20" as="geometry" />
        </mxCell>
        <mxCell id="WUI7d0x4xuRXz8EVybFa-564" value="&lt;font style=&quot;font-size: 55px&quot; color=&quot;#cc6600&quot;&gt;·&lt;/font&gt;" style="text;html=1;strokeColor=default;fillColor=none;align=center;verticalAlign=middle;whiteSpace=wrap;rounded=0;sketch=0;fontFamily=Times New Roman;fontSize=16;" vertex="1" parent="1">
          <mxGeometry x="630" y="400" width="20" height="20" as="geometry" />
        </mxCell>
        <mxCell id="WUI7d0x4xuRXz8EVybFa-565" value="&lt;font style=&quot;font-size: 55px&quot; color=&quot;#cc6600&quot;&gt;·&lt;/font&gt;" style="text;html=1;strokeColor=default;fillColor=none;align=center;verticalAlign=middle;whiteSpace=wrap;rounded=0;sketch=0;fontFamily=Times New Roman;fontSize=16;" vertex="1" parent="1">
          <mxGeometry x="610" y="420" width="20" height="20" as="geometry" />
        </mxCell>
        <mxCell id="WUI7d0x4xuRXz8EVybFa-566" value="0" style="text;html=1;strokeColor=default;fillColor=none;align=center;verticalAlign=middle;whiteSpace=wrap;rounded=0;sketch=0;fontFamily=Times New Roman;fontSize=16;" vertex="1" parent="1">
          <mxGeometry x="470" y="420" width="20" height="20" as="geometry" />
        </mxCell>
        <mxCell id="WUI7d0x4xuRXz8EVybFa-567" value="&lt;font style=&quot;font-size: 55px&quot; color=&quot;#cc6600&quot;&gt;·&lt;/font&gt;" style="text;html=1;strokeColor=default;fillColor=none;align=center;verticalAlign=middle;whiteSpace=wrap;rounded=0;sketch=0;fontFamily=Times New Roman;fontSize=16;" vertex="1" parent="1">
          <mxGeometry x="470" y="400" width="20" height="20" as="geometry" />
        </mxCell>
        <mxCell id="WUI7d0x4xuRXz8EVybFa-568" value="0" style="text;html=1;strokeColor=default;fillColor=none;align=center;verticalAlign=middle;whiteSpace=wrap;rounded=0;sketch=0;fontFamily=Times New Roman;fontSize=16;" vertex="1" parent="1">
          <mxGeometry x="490" y="400" width="20" height="20" as="geometry" />
        </mxCell>
        <mxCell id="WUI7d0x4xuRXz8EVybFa-569" value="&lt;font style=&quot;font-size: 55px&quot; color=&quot;#cc6600&quot;&gt;·&lt;/font&gt;" style="text;html=1;strokeColor=default;fillColor=none;align=center;verticalAlign=middle;whiteSpace=wrap;rounded=0;sketch=0;fontFamily=Times New Roman;fontSize=16;" vertex="1" parent="1">
          <mxGeometry x="490" y="420" width="20" height="20" as="geometry" />
        </mxCell>
        <mxCell id="WUI7d0x4xuRXz8EVybFa-570" value="0" style="text;html=1;strokeColor=default;fillColor=none;align=center;verticalAlign=middle;whiteSpace=wrap;rounded=0;sketch=0;fontFamily=Times New Roman;fontSize=16;" vertex="1" parent="1">
          <mxGeometry x="650" y="240" width="20" height="20" as="geometry" />
        </mxCell>
        <mxCell id="WUI7d0x4xuRXz8EVybFa-571" value="0" style="text;html=1;strokeColor=default;fillColor=none;align=center;verticalAlign=middle;whiteSpace=wrap;rounded=0;sketch=0;fontFamily=Times New Roman;fontSize=16;" vertex="1" parent="1">
          <mxGeometry x="650" y="280" width="20" height="20" as="geometry" />
        </mxCell>
        <mxCell id="WUI7d0x4xuRXz8EVybFa-572" value="&lt;font style=&quot;font-size: 55px&quot; color=&quot;#cc6600&quot;&gt;·&lt;/font&gt;" style="text;html=1;strokeColor=default;fillColor=none;align=center;verticalAlign=middle;whiteSpace=wrap;rounded=0;sketch=0;fontFamily=Times New Roman;fontSize=16;" vertex="1" parent="1">
          <mxGeometry x="650" y="260" width="20" height="20" as="geometry" />
        </mxCell>
        <mxCell id="WUI7d0x4xuRXz8EVybFa-573" value="0" style="text;html=1;strokeColor=default;fillColor=none;align=center;verticalAlign=middle;whiteSpace=wrap;rounded=0;sketch=0;fontFamily=Times New Roman;fontSize=16;" vertex="1" parent="1">
          <mxGeometry x="650" y="320" width="20" height="20" as="geometry" />
        </mxCell>
        <mxCell id="WUI7d0x4xuRXz8EVybFa-574" value="&lt;font style=&quot;font-size: 55px&quot; color=&quot;#cc6600&quot;&gt;·&lt;/font&gt;" style="text;html=1;strokeColor=default;fillColor=none;align=center;verticalAlign=middle;whiteSpace=wrap;rounded=0;sketch=0;fontFamily=Times New Roman;fontSize=16;" vertex="1" parent="1">
          <mxGeometry x="650" y="300" width="20" height="20" as="geometry" />
        </mxCell>
        <mxCell id="WUI7d0x4xuRXz8EVybFa-575" value="0" style="text;html=1;strokeColor=default;fillColor=none;align=center;verticalAlign=middle;whiteSpace=wrap;rounded=0;sketch=0;fontFamily=Times New Roman;fontSize=16;" vertex="1" parent="1">
          <mxGeometry x="650" y="360" width="20" height="20" as="geometry" />
        </mxCell>
        <mxCell id="WUI7d0x4xuRXz8EVybFa-576" value="&lt;font style=&quot;font-size: 55px&quot; color=&quot;#cc6600&quot;&gt;·&lt;/font&gt;" style="text;html=1;strokeColor=default;fillColor=none;align=center;verticalAlign=middle;whiteSpace=wrap;rounded=0;sketch=0;fontFamily=Times New Roman;fontSize=16;" vertex="1" parent="1">
          <mxGeometry x="650" y="340" width="20" height="20" as="geometry" />
        </mxCell>
        <mxCell id="WUI7d0x4xuRXz8EVybFa-577" value="0" style="text;html=1;strokeColor=default;fillColor=none;align=center;verticalAlign=middle;whiteSpace=wrap;rounded=0;sketch=0;fontFamily=Times New Roman;fontSize=16;" vertex="1" parent="1">
          <mxGeometry x="650" y="400" width="20" height="20" as="geometry" />
        </mxCell>
        <mxCell id="WUI7d0x4xuRXz8EVybFa-578" value="&lt;font style=&quot;font-size: 55px&quot; color=&quot;#cc6600&quot;&gt;·&lt;/font&gt;" style="text;html=1;strokeColor=default;fillColor=none;align=center;verticalAlign=middle;whiteSpace=wrap;rounded=0;sketch=0;fontFamily=Times New Roman;fontSize=16;" vertex="1" parent="1">
          <mxGeometry x="650" y="380" width="20" height="20" as="geometry" />
        </mxCell>
        <mxCell id="WUI7d0x4xuRXz8EVybFa-579" value="&lt;font style=&quot;font-size: 55px&quot; color=&quot;#cc6600&quot;&gt;·&lt;/font&gt;" style="text;html=1;strokeColor=default;fillColor=none;align=center;verticalAlign=middle;whiteSpace=wrap;rounded=0;sketch=0;fontFamily=Times New Roman;fontSize=16;" vertex="1" parent="1">
          <mxGeometry x="650" y="420" width="20" height="20" as="geometry" />
        </mxCell>
        <mxCell id="WUI7d0x4xuRXz8EVybFa-581" value="&lt;h1&gt;&lt;br&gt;&lt;/h1&gt;" style="text;html=1;strokeColor=#00FF00;fillColor=none;spacing=5;spacingTop=-20;whiteSpace=wrap;overflow=hidden;rounded=0;sketch=0;fontFamily=Times New Roman;fontSize=20;fontColor=#000000;strokeWidth=3;" vertex="1" parent="1">
          <mxGeometry x="590" y="360" width="20" height="20" as="geometry" />
        </mxCell>
        <mxCell id="WUI7d0x4xuRXz8EVybFa-587" value="&lt;h1&gt;&lt;br&gt;&lt;/h1&gt;" style="text;html=1;strokeColor=#FF0000;fillColor=none;spacing=5;spacingTop=-20;whiteSpace=wrap;overflow=hidden;rounded=0;sketch=0;fontFamily=Times New Roman;fontSize=20;fontColor=#000000;strokeWidth=3;" vertex="1" parent="1">
          <mxGeometry x="490" y="527" width="20" height="20" as="geometry" />
        </mxCell>
        <mxCell id="WUI7d0x4xuRXz8EVybFa-589" value="&lt;h1&gt;&lt;br&gt;&lt;/h1&gt;" style="text;html=1;strokeColor=#FF0000;fillColor=none;spacing=5;spacingTop=-20;whiteSpace=wrap;overflow=hidden;rounded=0;sketch=0;fontFamily=Times New Roman;fontSize=20;fontColor=#000000;strokeWidth=3;" vertex="1" parent="1">
          <mxGeometry x="570" y="607" width="20" height="20" as="geometry" />
        </mxCell>
        <mxCell id="WUI7d0x4xuRXz8EVybFa-590" value="&lt;font face=&quot;Times New Roman&quot;&gt;Intermediate Predicted &quot;Dot&quot; set image &lt;i&gt;I&lt;sub&gt;D&lt;/sub&gt;&lt;/i&gt;&lt;/font&gt;" style="text;html=1;strokeColor=none;fillColor=none;align=center;verticalAlign=middle;whiteSpace=wrap;rounded=0;fontSize=16;" vertex="1" parent="1">
          <mxGeometry x="210" y="716" width="150" height="30" as="geometry" />
        </mxCell>
        <mxCell id="WUI7d0x4xuRXz8EVybFa-591" value="&lt;font face=&quot;Times New Roman&quot;&gt;^&lt;/font&gt;" style="text;html=1;strokeColor=none;fillColor=none;align=center;verticalAlign=middle;whiteSpace=wrap;rounded=0;fontSize=16;" vertex="1" parent="1">
          <mxGeometry x="320" y="718" width="30" height="30" as="geometry" />
        </mxCell>
        <mxCell id="WUI7d0x4xuRXz8EVybFa-592" value="&lt;font face=&quot;Times New Roman&quot;&gt;Predicted &quot;Dot&quot; set image &lt;i&gt;I&lt;sub&gt;D&lt;/sub&gt;&lt;/i&gt;&lt;/font&gt;" style="text;html=1;strokeColor=none;fillColor=none;align=center;verticalAlign=middle;whiteSpace=wrap;rounded=0;fontSize=16;" vertex="1" parent="1">
          <mxGeometry x="500" y="718" width="150" height="30" as="geometry" />
        </mxCell>
        <mxCell id="WUI7d0x4xuRXz8EVybFa-593" value="&lt;font face=&quot;Times New Roman&quot;&gt;~&lt;/font&gt;" style="text;html=1;strokeColor=none;fillColor=none;align=center;verticalAlign=middle;whiteSpace=wrap;rounded=0;fontSize=16;" vertex="1" parent="1">
          <mxGeometry x="579" y="716" width="30" height="30" as="geometry" />
        </mxCell>
        <mxCell id="WUI7d0x4xuRXz8EVybFa-594" value="" style="endArrow=classic;html=1;rounded=0;fontFamily=Times New Roman;fontSize=20;fontColor=#000000;entryX=0;entryY=0;entryDx=0;entryDy=0;exitX=1;exitY=0;exitDx=0;exitDy=0;strokeColor=#00FF00;strokeWidth=3;" edge="1" parent="1" source="WUI7d0x4xuRXz8EVybFa-475" target="WUI7d0x4xuRXz8EVybFa-581">
          <mxGeometry width="50" height="50" relative="1" as="geometry">
            <mxPoint x="270" y="570" as="sourcePoint" />
            <mxPoint x="320" y="520" as="targetPoint" />
          </mxGeometry>
        </mxCell>
        <mxCell id="WUI7d0x4xuRXz8EVybFa-595" value="" style="endArrow=classic;html=1;rounded=0;fontFamily=Times New Roman;fontSize=20;fontColor=#000000;entryX=0;entryY=0;entryDx=0;entryDy=0;exitX=1;exitY=0;exitDx=0;exitDy=0;strokeColor=#FF0000;strokeWidth=3;" edge="1" parent="1" source="WUI7d0x4xuRXz8EVybFa-471">
          <mxGeometry width="50" height="50" relative="1" as="geometry">
            <mxPoint x="260" y="220" as="sourcePoint" />
            <mxPoint x="490" y="260" as="targetPoint" />
          </mxGeometry>
        </mxCell>
        <mxCell id="WUI7d0x4xuRXz8EVybFa-597" value="" style="endArrow=classic;html=1;rounded=0;fontFamily=Times New Roman;fontSize=20;fontColor=#000000;entryX=0;entryY=0;entryDx=0;entryDy=0;exitX=1;exitY=0;exitDx=0;exitDy=0;strokeColor=#FF0000;strokeWidth=3;" edge="1" parent="1">
          <mxGeometry width="50" height="50" relative="1" as="geometry">
            <mxPoint x="240" y="507" as="sourcePoint" />
            <mxPoint x="490" y="527" as="targetPoint" />
          </mxGeometry>
        </mxCell>
        <mxCell id="WUI7d0x4xuRXz8EVybFa-598" value="" style="endArrow=classic;html=1;rounded=0;fontFamily=Times New Roman;fontSize=20;fontColor=#000000;entryX=0;entryY=0;entryDx=0;entryDy=0;exitX=1;exitY=0;exitDx=0;exitDy=0;strokeColor=#FF0000;strokeWidth=3;" edge="1" parent="1">
          <mxGeometry width="50" height="50" relative="1" as="geometry">
            <mxPoint x="320" y="587" as="sourcePoint" />
            <mxPoint x="570" y="607" as="targetPoint" />
          </mxGeometry>
        </mxCell>
      </root>
    </mxGraphModel>
  </diagram>
</mxfile>
